<?xml version="1.0" encoding="UTF-8"?>
<svg version="1.1" xmlns="http://www.w3.org/2000/svg" width="1152" height="896">
<path d="M0 0 C380.16 0 760.32 0 1152 0 C1152 295.68 1152 591.36 1152 896 C771.84 896 391.68 896 0 896 C0 600.32 0 304.64 0 0 Z " fill="#F5F8FD" transform="translate(0,0)"/>
<path d="M0 0 C0.33 0.33 0.66 0.66 1 1 C4.22865689 1.46058523 7.46292313 1.83682719 10.703125 2.20703125 C14.41929273 3.10084884 16.26137349 4.37631585 19 7 C20.3860015 9.77200299 20.20728063 12.09390556 20.25 15.1875 C20.27578125 16.29480469 20.3015625 17.40210938 20.328125 18.54296875 C19.949627 22.53071549 18.62189728 25.3527484 17 29 C16.48085961 31.42527709 16.02310037 33.86444122 15.625 36.3125 C14.46557331 42.63393015 13.08421617 48.8720397 9 54 C5.6875 55.125 5.6875 55.125 3 55 C3.11859375 55.72445312 3.2371875 56.44890625 3.359375 57.1953125 C4.41947566 65.14606742 4.41947566 65.14606742 2.25 69.5625 C-0 72 -0 72 -3 74 C-10.07742654 74 -14.61342379 71.4838535 -20 67 C-22.18416943 64.75752625 -24.06978517 62.4746344 -26 60 C-31.42215489 62.07769885 -36.37261406 64.80378503 -41.4375 67.625 C-42.8306543 68.36943359 -42.8306543 68.36943359 -44.25195312 69.12890625 C-55.7504622 75.56152414 -60.30111307 84.84389112 -64.015625 97.1875 C-65.78561815 104.04271156 -66.89522299 111.01144846 -68 118 C-67.46632813 118.17015625 -66.93265625 118.3403125 -66.3828125 118.515625 C-60.47885503 120.43594335 -54.74743064 122.65245791 -49 125 C-49.33 128.3 -49.66 131.6 -50 135 C-49.33613281 135.2371875 -48.67226563 135.474375 -47.98828125 135.71875 C-44.18950307 137.34750718 -40.73506167 139.38868339 -37.1875 141.5 C-36.44048828 141.93562256 -35.69347656 142.37124512 -34.92382812 142.82006836 C-31.15570645 145.0362604 -27.48989271 147.31482502 -23.92578125 149.84765625 C-15.31170256 155.8705774 -9.24390566 157.87911897 1.26171875 157.8828125 C7.49071955 158.07807898 10.93228929 160.08736759 15.5 164.3125 C17.39869006 167.7143197 17.30079969 170.16480399 17 174 C17.99 174 18.98 174 20 174 C20.09539062 173.21367188 20.19078125 172.42734375 20.2890625 171.6171875 C21.20855018 166.93891504 22.76421101 162.60459088 24.375 158.125 C24.67921875 157.26519531 24.9834375 156.40539062 25.296875 155.51953125 C28.31099091 147.03105951 31.52249819 138.62965414 34.81640625 130.24609375 C36.04154801 126.8860515 37.01747894 123.43882373 38 120 C63.74 120 89.48 120 116 120 C113.84517032 128.61931871 111.23588171 136.82331382 107.421875 144.8515625 C105.6086738 148.86650801 104.02007513 152.95218317 102.4375 157.0625 C101.9880603 158.22978638 101.9880603 158.22978638 101.52954102 159.4206543 C100.9497116 160.92885058 100.37034855 162.43722627 99.79150391 163.94580078 C95.64041451 174.71917098 95.64041451 174.71917098 94 178 C91.4375 178.625 91.4375 178.625 89 179 C94.61247335 180.20422946 94.61247335 180.20422946 99.875 178.5625 C100.57625 178.046875 101.2775 177.53125 102 177 C104 177 104 177 105.41015625 178.3984375 C105.95542969 179.05070313 106.50070312 179.70296875 107.0625 180.375 C109.77923786 183.57546345 112.54335219 186.71306063 115.375 189.8125 C118.57652433 193.35160002 121.63146063 196.97103106 124.625 200.6875 C127.68299604 204.46752288 130.83758786 207.95748183 134.328125 211.3359375 C136.72490834 213.72152091 138.90920973 216.27255926 141.1171875 218.83203125 C143.2157532 221.24842951 145.354397 223.62529024 147.5 226 C150.75899377 229.61131742 153.97928181 233.2518847 157.171875 236.921875 C160.07071731 240.21714019 163.02907691 243.45849702 165.984375 246.703125 C166.98210937 247.84007812 166.98210937 247.84007812 168 249 C168.58265625 249.65484375 169.1653125 250.3096875 169.765625 250.984375 C171.38273527 253.62497278 171.55937744 254.95139297 171 258 C169.09375 260.4296875 169.09375 260.4296875 166.5 262.875 C165.13101563 264.17630859 165.13101563 264.17630859 163.734375 265.50390625 C157.80301357 270.9183919 157.80301357 270.9183919 154.80859375 273.4609375 C153.63279161 274.46151211 152.4774055 275.48676651 151.34765625 276.5390625 C149.13292546 278.55655263 147.62803185 279.92349335 144.60044861 280.29231262 C141.55675239 279.95017518 140.09219838 279.1159475 137.58032227 277.38549805 C136.73917374 276.81457932 135.89802521 276.24366058 135.03138733 275.65544128 C134.13544357 275.03051285 133.23949982 274.40558441 132.31640625 273.76171875 C130.91671852 272.80686333 130.91671852 272.80686333 129.48875427 271.8327179 C126.50575482 269.79512748 123.53377861 267.74213567 120.5625 265.6875 C117.5930155 263.6463253 114.62131685 261.60848146 111.6469574 259.57441711 C109.79723221 258.30815861 107.95061904 257.03733886 106.1075592 255.76139832 C101.84993461 252.83469245 97.70696339 250.14040432 93 248 C93.12375 249.27875 93.2475 250.5575 93.375 251.875 C93.34165407 263.57942116 88.41741224 275.59529357 80.83203125 284.34765625 C79 286 79 286 76 287 C76 287.66 76 288.32 76 289 C86.1450091 288.91539812 96.28986436 288.82043856 106.43465328 288.71247292 C111.14594042 288.66265399 115.85720669 288.6163233 120.56860352 288.578125 C125.12042338 288.54108947 129.67206229 288.4946813 134.22372627 288.44193649 C135.95510222 288.42348917 137.68651682 288.40834607 139.41795158 288.39665604 C151.83942332 288.34558772 151.83942332 288.34558772 164 286 C164.01675781 285.05898438 164.03351563 284.11796875 164.05078125 283.1484375 C164.74829204 273.09178944 164.74829204 273.09178944 168.4765625 269.83984375 C171.4375 268.3125 171.4375 268.3125 174.37109375 267.11328125 C176.97485339 266.01064901 178.09993957 265.00894642 180 263 C181.11375 262.54625 182.2275 262.0925 183.375 261.625 C187.20417379 259.90847382 189.18242971 258.05236781 192 255 C195 253 195 253 198.375 253.0625 C202.38569732 252.99335005 203.7003225 252.08400684 207 250 C209.625 249.625 209.625 249.625 212 250 C214.8999717 252.30727676 215.00534374 253.03060507 215.6875 256.9375 C215.48648603 263.77197486 210.99576627 268.77189461 207 274 C206.29037109 274.95132813 206.29037109 274.95132813 205.56640625 275.921875 C203.53021797 278.51217353 201.30201362 280.63137528 198.75 282.6875 C195.78599021 284.77109261 195.78599021 284.77109261 195 288 C277.17 288.495 277.17 288.495 361 289 C359.35 287.35 357.7 285.7 356 284 C352.00550919 279.46571313 351.20924058 275.65256607 351.41015625 269.76171875 C352.42420369 265.01382774 355.29958427 262.0009469 359 259 C362.02310011 257.11665739 364.21019314 256.77088803 367.75 256.875 C368.54921875 256.89304687 369.3484375 256.91109375 370.171875 256.9296875 C371.07679688 256.96449219 371.07679688 256.96449219 372 257 C372.66 258.98 373.32 260.96 374 263 C376.64 263 379.28 263 382 263 C382 260.03 382 257.06 382 254 C384.31 254 386.62 254 389 254 C389.33 255.65 389.66 257.3 390 259 C392.97 258.34 395.94 257.68 399 257 C399.33 255.35 399.66 253.7 400 252 C402.31 252 404.62 252 407 252 C407.33 254.31 407.66 256.62 408 259 C410.97 258.67 413.94 258.34 417 258 C417 255.36 417 252.72 417 250 C426.62151921 247.84006712 436.30547353 246.28737169 446.0625 244.875 C447.22040039 244.70452148 448.37830078 244.53404297 449.57128906 244.35839844 C457.70818936 243.20450477 465.79729342 242.48732033 474 242 C474.1431665 241.06140137 474.28633301 240.12280273 474.43383789 239.15576172 C475.93569847 230.78445952 481.57426747 224.65042454 488.2578125 219.76171875 C499.41052507 212.59665697 510.92416966 211.08079422 523.87109375 213.546875 C526.0238475 214.21844463 527.97163414 215.01976462 530 216 C530.65742187 216.26683594 531.31484375 216.53367187 531.9921875 216.80859375 C541.67425008 221.04685071 548.50735267 228.55782594 553 238 C556.70586184 248.10689594 556.30467935 260.13984768 552 270 C548.89483201 276.4134778 545.3352999 281.10955996 539.734375 285.52734375 C537.75227502 287.07342791 537.75227502 287.07342791 536 290 C537.19125992 290.03314301 538.38251984 290.06628601 539.60987854 290.10043335 C551.03231275 290.41882898 562.45459967 290.74213516 573.87677097 291.06982994 C579.74403789 291.23801145 585.6113385 291.40466782 591.47875977 291.56738281 C614.44108816 292.20524623 637.39769292 292.86381787 660.33984375 294.0390625 C661.1481772 294.07987316 661.95651066 294.12068382 662.78933907 294.16273117 C678.86806874 294.98572217 678.86806874 294.98572217 685 296 C685.33 296.66 685.66 297.32 686 298 C683.79251633 298.31844652 681.58394145 298.62932792 679.375 298.9375 C678.14523437 299.11152344 676.91546875 299.28554688 675.6484375 299.46484375 C664.9766108 300.78254671 654.26675518 301.13739773 643.52737427 301.33387756 C629.21405774 301.60106731 614.90517294 301.90012397 600.59960938 302.45288086 C552.29019265 304.29315174 503.96811171 304.66106695 455.62905884 305.06505966 C449.61849088 305.11533572 443.60794048 305.16744799 437.59739351 305.2201677 C348.40587352 306.00230698 259.22428599 306.3147403 170.03009319 306.01029396 C166.88809694 305.99961984 163.7461001 305.9891321 160.60410309 305.97868347 C127.44372384 305.86815764 94.2834423 305.73915369 61.12319946 305.5933876 C56.44210969 305.5728264 51.76101853 305.55264702 47.07992554 305.5328331 C33.75677015 305.47633046 20.43365003 305.41521533 7.11054802 305.34724808 C3.06161002 305.32671537 -0.9873294 305.30793156 -5.03628349 305.29087448 C-26.21329266 305.20043219 -47.37189044 304.95359802 -68.54114914 304.36107731 C-80.55638959 304.02521671 -92.56740751 303.82137223 -104.58734703 303.73963928 C-107.80947294 303.71756657 -111.03153451 303.69071362 -114.25361633 303.66296387 C-122.22006659 303.59512881 -130.18656277 303.53384819 -138.15307617 303.47393799 C-144.98419058 303.4224526 -151.81526106 303.3675903 -158.64631081 303.30812073 C-161.77433981 303.28218189 -164.90237536 303.26102864 -168.03044128 303.2401123 C-178.86640303 303.15391857 -189.65982502 302.85329672 -200.47894287 302.23632812 C-209.31023318 301.7433449 -218.16078291 301.63706528 -227.00268555 301.44775391 C-236.07530658 301.24991141 -245.13936565 300.99134856 -254.203125 300.53515625 C-255.34685326 300.47992798 -255.34685326 300.47992798 -256.51368713 300.42358398 C-263.41265644 300.05383077 -270.18534773 299.14503945 -277 298 C-277 297.34 -277 296.68 -277 296 C-271.41772722 295.09507229 -265.91305309 294.72710612 -260.265625 294.5 C-259.32887436 294.45971176 -258.39212372 294.41942352 -257.42698669 294.37791443 C-254.36814777 294.24781432 -251.30911557 294.12341389 -248.25 294 C-247.18915192 293.95642365 -246.12830383 293.91284729 -245.03530884 293.86795044 C-237.69065147 293.56671779 -230.34556303 293.27824464 -223 293 C-222.20793152 292.96992859 -221.41586304 292.93985718 -220.59979248 292.90887451 C-187.75249184 291.67729736 -154.86533622 291.45220129 -122 291 C-122.75359299 290.59791824 -123.50718597 290.19583649 -124.28361511 289.78157043 C-125.27307632 289.24884018 -126.26253754 288.71610992 -127.28198242 288.16723633 C-128.26245041 287.64140457 -129.2429184 287.11557281 -130.25309753 286.57380676 C-142.22788175 279.71298931 -149.18080331 268.74382758 -155.3125 256.8125 C-155.66280273 256.13485596 -156.01310547 255.45721191 -156.37402344 254.7590332 C-158.3240911 250.83724116 -159.52636042 247.41377173 -160 243 C-161.65 243 -163.3 243 -165 243 C-165 241.68 -165 240.36 -165 239 C-163.68 239 -162.36 239 -161 239 C-161.16081055 238.27989746 -161.32162109 237.55979492 -161.48730469 236.81787109 C-164.58946378 219.76781383 -161.55852793 201.1567466 -159.71484375 184.04296875 C-159.13372191 178.60312242 -158.7921263 173.21476458 -158.625 167.75 C-158.14479662 158.45665229 -155.78288258 149.83527202 -153 141 C-152.78214844 140.30519531 -152.56429687 139.61039063 -152.33984375 138.89453125 C-146.0140494 119.31108408 -135.08863525 101.06700891 -120 87 C-118.8553125 85.824375 -118.8553125 85.824375 -117.6875 84.625 C-115.13408455 82.1309663 -112.55524275 79.67638728 -109.9375 77.25 C-109.10089844 76.47140625 -108.26429688 75.6928125 -107.40234375 74.890625 C-105.13187878 73.10378752 -103.81663315 72.39029559 -101 72 C-101 71.34 -101 70.68 -101 70 C-74.4346592 54.03907998 -49.03706273 47.84349399 -18 49 C-19.09827413 43.52638079 -20.44359463 38.43657434 -22.5625 33.25 C-25.32709246 26.45747015 -27.59477793 19.7619771 -25.1640625 12.50390625 C-22.88915218 7.3662732 -20.47120399 3.49461983 -15.46484375 0.765625 C-10.45025022 -0.79199835 -5.17965371 -0.53241668 0 0 Z " fill="#ACBBF5" transform="translate(372,529)"/>
<path d="M0 0 C25.74 0 51.48 0 78 0 C75.84517032 8.61931871 73.23588171 16.82331382 69.421875 24.8515625 C67.6086738 28.86650801 66.02007513 32.95218317 64.4375 37.0625 C63.9880603 38.22978638 63.9880603 38.22978638 63.52954102 39.4206543 C62.9497116 40.92885058 62.37034855 42.43722627 61.79150391 43.94580078 C57.64041451 54.71917098 57.64041451 54.71917098 56 58 C53.4375 58.625 53.4375 58.625 51 59 C56.61247335 60.20422946 56.61247335 60.20422946 61.875 58.5625 C62.57625 58.046875 63.2775 57.53125 64 57 C66 57 66 57 67.41015625 58.3984375 C67.95542969 59.05070313 68.50070312 59.70296875 69.0625 60.375 C71.77923786 63.57546345 74.54335219 66.71306063 77.375 69.8125 C80.57652433 73.35160002 83.63146063 76.97103106 86.625 80.6875 C89.68299604 84.46752288 92.83758786 87.95748183 96.328125 91.3359375 C98.72490834 93.72152091 100.90920973 96.27255926 103.1171875 98.83203125 C105.2157532 101.24842951 107.354397 103.62529024 109.5 106 C112.75899377 109.61131742 115.97928181 113.2518847 119.171875 116.921875 C122.07071731 120.21714019 125.02907691 123.45849702 127.984375 126.703125 C128.98210937 127.84007812 128.98210937 127.84007812 130 129 C130.58265625 129.65484375 131.1653125 130.3096875 131.765625 130.984375 C133.38273527 133.62497278 133.55937744 134.95139297 133 138 C131.09375 140.4296875 131.09375 140.4296875 128.5 142.875 C127.58734375 143.74253906 126.6746875 144.61007812 125.734375 145.50390625 C119.80301357 150.9183919 119.80301357 150.9183919 116.80859375 153.4609375 C115.63279161 154.46151211 114.4774055 155.48676651 113.34765625 156.5390625 C109.62689547 159.92845781 109.62689547 159.92845781 106.57763672 160.27644348 C103.67703535 159.96536305 102.33222553 159.28208707 99.9453125 157.6394043 C99.17737366 157.11945892 98.40943481 156.59951355 97.6182251 156.06381226 C96.38407867 155.20271347 96.38407867 155.20271347 95.125 154.32421875 C94.25566833 153.73162262 93.38633667 153.13902649 92.49066162 152.5284729 C89.65334549 150.59163161 86.82693294 148.6394568 84 146.6875 C81.0690274 144.68256995 78.1351786 142.68190023 75.20111084 140.6815033 C73.24308069 139.3462505 71.28592746 138.00971088 69.32965088 136.67189026 C60.04806015 130.32910961 50.66463853 124.15201289 41.23608398 118.03076172 C36.49016358 114.94736262 31.75718474 111.86062636 27.11328125 108.625 C26.41041992 108.13862061 25.70755859 107.65224121 24.98339844 107.15112305 C23.26321476 105.95237278 21.55462899 104.73701971 19.84765625 103.51953125 C16.5418663 101.75553634 14.69593464 101.56343322 11 102 C8.67403084 102.66728186 8.67403084 102.66728186 6.375 103.6875 C-1.52229766 106.75016391 -9.77290288 108.53599737 -17.99804688 110.4909668 C-19.68588206 110.92012977 -21.34782821 111.44927607 -23 112 C-31.66125908 112.92281299 -37.70025731 111.67961561 -45 107 C-45.88429688 106.44183594 -46.76859375 105.88367188 -47.6796875 105.30859375 C-57.80860081 98.43642736 -65.54880178 89.60183366 -72.3125 79.5 C-72.7161377 78.9126709 -73.11977539 78.3253418 -73.53564453 77.72021484 C-76.120218 73.66944926 -76.120218 73.66944926 -75.6015625 70.78125 C-73.37970058 68.31010601 -71.10320853 67.33053596 -68.0625 66 C-66.90492188 65.49210938 -65.74734375 64.98421875 -64.5546875 64.4609375 C-59.75368442 62.48777799 -54.91302879 60.67377734 -50 59 C-50.495 56.525 -50.495 56.525 -51 54 C-40.11 54 -29.22 54 -18 54 C-17.67 52.02 -17.34 50.04 -17 48 C-16.53377506 46.42717361 -16.02666316 44.86580201 -15.4765625 43.3203125 C-15.1775 42.47339844 -14.8784375 41.62648438 -14.5703125 40.75390625 C-14.25835937 39.88636719 -13.94640625 39.01882813 -13.625 38.125 C-13.32078125 37.26519531 -13.0165625 36.40539062 -12.703125 35.51953125 C-9.68900909 27.03105951 -6.47750181 18.62965414 -3.18359375 10.24609375 C-1.95845199 6.8860515 -0.98252106 3.43882373 0 0 Z " fill="#060D2D" transform="translate(410,649)"/>
<path d="M0 0 C0.65742187 0.26683594 1.31484375 0.53367187 1.9921875 0.80859375 C11.67425008 5.04685071 18.50735267 12.55782594 23 22 C26.70775322 32.11205425 26.29819091 44.13369814 22 54 C17.07668154 64.32003293 9.59560786 71.64977076 -1 76 C-1.69480469 76.35449219 -2.38960937 76.70898438 -3.10546875 77.07421875 C-13.10688395 80.27305195 -27.11057696 79.36038405 -36.4140625 74.6953125 C-42.3939548 70.77496015 -48.02776859 66.00276504 -52 60 C-52 59.34 -52 58.68 -52 58 C-53.01308228 58.15247444 -53.01308228 58.15247444 -54.04663086 58.30802917 C-111.46866979 66.9422924 -111.46866979 66.9422924 -136.0625 70.0625 C-136.85986572 70.16613861 -137.65723145 70.26977722 -138.47875977 70.3765564 C-163.85545646 73.65673383 -163.85545646 73.65673383 -172 70 C-176.17927451 66.09352409 -178.18387412 62.54945959 -178.5 56.875 C-178.47017868 51.20149476 -176.8068 48.55143333 -172.921875 44.55859375 C-169.37397047 41.68132971 -166.82325161 40.7404926 -162.25 40.875 C-161.45078125 40.89304687 -160.6515625 40.91109375 -159.828125 40.9296875 C-159.22484375 40.95289063 -158.6215625 40.97609375 -158 41 C-157.34 42.98 -156.68 44.96 -156 47 C-153.36 47 -150.72 47 -148 47 C-148 44.03 -148 41.06 -148 38 C-145.69 38 -143.38 38 -141 38 C-140.505 40.475 -140.505 40.475 -140 43 C-137.03 42.34 -134.06 41.68 -131 41 C-130.67 39.35 -130.34 37.7 -130 36 C-127.69 36 -125.38 36 -123 36 C-122.505 39.465 -122.505 39.465 -122 43 C-117.545 42.505 -117.545 42.505 -113 42 C-113 39.36 -113 36.72 -113 34 C-103.37848079 31.84006712 -93.69452647 30.28737169 -83.9375 28.875 C-82.20064941 28.61928223 -82.20064941 28.61928223 -80.42871094 28.35839844 C-72.29181064 27.20450477 -64.20270658 26.48732033 -56 26 C-55.8568335 25.06140137 -55.71366699 24.12280273 -55.56616211 23.15576172 C-54.06430153 14.78445952 -48.42573253 8.65042454 -41.7421875 3.76171875 C-29.49314915 -4.10767768 -13.52184827 -6.53461705 0 0 Z " fill="#1233AB" transform="translate(902,745)"/>
<path d="M0 0 C1.75 1.5390625 1.75 1.5390625 3 3.625 C8.47613273 11.75318654 15.37396347 16.65072945 25 19 C35.43750082 20.25443648 45.85838533 20.45654835 55.13671875 14.99609375 C56.05904297 14.50302734 56.05904297 14.50302734 57 14 C57.66 14.33 58.32 14.66 59 15 C58.67 15.33 58.34 15.66 58 16 C59.19125992 16.03314301 60.38251984 16.06628601 61.60987854 16.10043335 C73.03231275 16.41882898 84.45459967 16.74213516 95.87677097 17.06982994 C101.74403789 17.23801145 107.6113385 17.40466782 113.47875977 17.56738281 C136.44108816 18.20524623 159.39769292 18.86381787 182.33984375 20.0390625 C183.1481772 20.07987316 183.95651066 20.12068382 184.78933907 20.16273117 C200.86806874 20.98572217 200.86806874 20.98572217 207 22 C207.33 22.66 207.66 23.32 208 24 C205.79251633 24.31844652 203.58394145 24.62932792 201.375 24.9375 C200.14523437 25.11152344 198.91546875 25.28554688 197.6484375 25.46484375 C186.97664124 26.78254295 176.26681608 27.137395 165.52746582 27.33387756 C151.21850637 27.6009871 136.91398032 27.89966607 122.61279297 28.45288086 C75.33971828 30.25536473 28.05603142 30.63914096 -19.24623692 31.03531903 C-27.58595772 31.10517175 -35.92564292 31.17845752 -44.26531982 31.25335693 C-131.1778061 32.03038593 -218.08468902 32.25693386 -305 32 C-304.21987549 31.22132568 -303.43975098 30.44265137 -302.63598633 29.64038086 C-301.0209115 28.0226135 -299.41473652 26.39582316 -297.82421875 24.75390625 C-293.18503063 19.99598205 -288.45914096 15.79313609 -283 12 C-283 12.66 -283 13.32 -283 14 C-200.83 14.495 -200.83 14.495 -117 15 C-117 14.34 -117 13.68 -117 13 C-116.1234375 13.03480469 -115.246875 13.06960938 -114.34375 13.10546875 C-106.10235171 13.28135225 -98.15697257 12.78843086 -89.984375 11.70703125 C-88.94710266 11.57345215 -87.90983032 11.43987305 -86.84112549 11.30224609 C-76.19329971 9.91982174 -65.55768335 8.44716673 -54.92578125 6.94775391 C-51.73727304 6.49820562 -48.5483582 6.05163383 -45.359375 5.60546875 C-43.25517217 5.3101534 -41.15100509 5.01458321 -39.046875 4.71875 C-38.02855591 4.57566406 -37.01023682 4.43257812 -35.96105957 4.28515625 C-31.05183696 3.59063177 -26.1472579 2.87542753 -21.24804688 2.11328125 C-19.88960663 1.90306335 -19.88960663 1.90306335 -18.50372314 1.68859863 C-16.82388784 1.42673376 -15.14473691 1.16041902 -13.4664917 0.8885498 C-8.94067314 0.18256916 -4.59735608 -0.26537345 0 0 Z " fill="#CDCED7" transform="translate(850,803)"/>
<path d="M0 0 C2.8999717 2.30727676 3.00534374 3.03060507 3.6875 6.9375 C3.48643885 13.77357925 -1.00575936 18.76926836 -5 24 C-5.44988281 24.61101563 -5.89976562 25.22203125 -6.36328125 25.8515625 C-8.52345767 28.62787171 -10.98907146 30.90766451 -13.64453125 33.1875 C-18.65246924 37.53715757 -23.45354747 42.09243123 -28.26367188 46.65820312 C-28.93333984 47.29048828 -29.60300781 47.92277344 -30.29296875 48.57421875 C-30.8861792 49.13713623 -31.47938965 49.70005371 -32.09057617 50.2800293 C-32.72068604 50.84761963 -33.3507959 51.41520996 -34 52 C-34.68826433 52.68619761 -35.37652866 53.37239523 -36.08564949 54.07938671 C-39.90449093 56.596077 -43.12099376 56.53192359 -47.53903198 56.44978333 C-48.39783435 56.44982304 -49.25663672 56.44986275 -50.1414634 56.44990367 C-53.02034687 56.44512208 -55.89817242 56.41158254 -58.77685547 56.37817383 C-60.84235948 56.36881801 -62.9078721 56.36122252 -64.97338867 56.35525513 C-70.59558343 56.33389166 -76.21732815 56.28750985 -81.83932257 56.23657823 C-87.75739849 56.18701248 -93.67557855 56.159715 -99.59378052 56.12980652 C-109.5693131 56.07627362 -119.54465383 56.00798961 -129.52001953 55.92944336 C-143.44907033 55.81979941 -157.3781813 55.73710885 -171.30744338 55.65976298 C-181.06841052 55.6045362 -190.82933841 55.54278818 -200.59025812 55.4797914 C-202.92470788 55.46472662 -205.25915859 55.44981039 -207.59361029 55.4350493 C-232.0350418 55.27941892 -256.46391407 55.04133919 -280.89671612 54.35390949 C-292.79338175 54.01929432 -304.68596764 53.82056604 -316.58734703 53.73963928 C-319.80947294 53.71756657 -323.03153451 53.69071362 -326.25361633 53.66296387 C-334.22006659 53.59512881 -342.18656277 53.53384819 -350.15307617 53.47393799 C-356.98419058 53.4224526 -363.81526106 53.3675903 -370.64631081 53.30812073 C-373.77433981 53.28218189 -376.90237536 53.26102864 -380.03044128 53.2401123 C-390.86640303 53.15391857 -401.65982502 52.85329672 -412.47894287 52.23632812 C-421.31023318 51.7433449 -430.16078291 51.63706528 -439.00268555 51.44775391 C-448.07530658 51.24991141 -457.13936565 50.99134856 -466.203125 50.53515625 C-466.9656105 50.4983374 -467.72809601 50.46151855 -468.51368713 50.42358398 C-475.41265644 50.05383077 -482.18534773 49.14503945 -489 48 C-489 47.34 -489 46.68 -489 46 C-483.41772224 45.09507149 -477.9130546 44.72714237 -472.265625 44.5 C-470.86070297 44.43949966 -470.86070297 44.43949966 -469.42739868 44.3777771 C-466.36842793 44.24754721 -463.30926474 44.12312059 -460.25 44 C-458.65723236 43.93513397 -458.65723236 43.93513397 -457.0322876 43.86895752 C-450.62461884 43.60878605 -444.21664845 43.35729326 -437.80847168 43.10998535 C-435.36594686 43.01433121 -432.92367073 42.91448451 -430.48144531 42.81152344 C-409.83856567 41.95758217 -389.18184078 41.84551177 -368.52398682 41.76983643 C-365.35411788 41.75802695 -362.18438866 41.73977116 -359.0145874 41.71600342 C-355.23821311 41.68846159 -351.46208337 41.67645297 -347.68561172 41.67580032 C-346.27481325 41.67321102 -344.86401369 41.66552821 -343.45327377 41.65241623 C-336.12539187 41.58827268 -330.5468533 41.66640395 -324 45 C-319.37500963 45.83280752 -314.91378655 46.12685557 -310.2204895 46.13371277 C-309.25324127 46.1371111 -309.25324127 46.1371111 -308.26645267 46.14057809 C-306.12569584 46.14686136 -303.98500325 46.14609241 -301.84423828 46.14526367 C-300.30117716 46.14825868 -298.75811678 46.151662 -297.21505737 46.15544128 C-293.03731085 46.16425 -288.85958484 46.16661806 -284.68182993 46.16725707 C-282.06840078 46.16796927 -279.45497679 46.1701068 -276.84154892 46.17275429 C-267.71483786 46.18199687 -258.58814137 46.18609048 -249.46142578 46.18530273 C-240.96870761 46.18470201 -232.47605297 46.19525554 -223.98335087 46.2110464 C-216.6786679 46.2241419 -209.37400564 46.2294858 -202.06931102 46.22884732 C-197.71237442 46.22859296 -193.35549434 46.2314103 -188.99856949 46.24202538 C-184.89945878 46.25174041 -180.80045824 46.25176229 -176.70134354 46.24450874 C-175.20221291 46.24346717 -173.7030753 46.24580023 -172.2039566 46.2518692 C-157.23229677 46.33463313 -157.23229677 46.33463313 -143.41442871 41.02639771 C-135.5168401 36.67789243 -126.8818322 37.53702181 -118.15625 37.6796875 C-116.41948795 37.69225247 -114.68270962 37.7027246 -112.94592285 37.71121216 C-108.39208205 37.73769433 -103.83878784 37.78648887 -99.28521729 37.84191895 C-91.99891964 37.92846099 -84.71248142 37.98787845 -77.42582703 38.0340004 C-74.8948781 38.05427787 -72.36439164 38.08839116 -69.83361816 38.12399292 C-62.30914087 38.20220681 -55.28651285 38.14537979 -48 36 C-47.98324219 35.05898438 -47.96648437 34.11796875 -47.94921875 33.1484375 C-47.25170796 23.09178944 -47.25170796 23.09178944 -43.5234375 19.83984375 C-40.5625 18.3125 -40.5625 18.3125 -37.62890625 17.11328125 C-35.02514661 16.01064901 -33.90006043 15.00894642 -32 13 C-30.88625 12.54625 -29.7725 12.0925 -28.625 11.625 C-24.79582621 9.90847382 -22.81757029 8.05236781 -20 5 C-17 3 -17 3 -13.625 3.0625 C-8.28790019 2.97048104 -5.44283926 -0.85939567 0 0 Z " fill="#CCCDD6" transform="translate(584,779)"/>
<path d="M0 0 C25.74 0 51.48 0 78 0 C75.84517032 8.61931871 73.23588171 16.82331382 69.421875 24.8515625 C67.6086738 28.86650801 66.02007513 32.95218317 64.4375 37.0625 C64.13787354 37.84069092 63.83824707 38.61888184 63.52954102 39.4206543 C62.9497116 40.92885058 62.37034855 42.43722627 61.79150391 43.94580078 C57.64041451 54.71917098 57.64041451 54.71917098 56 58 C50.83066781 59.28539003 45.55763004 59.18477257 40.26269531 59.23706055 C39.29942825 59.25017273 38.33616119 59.26328491 37.34370422 59.27679443 C34.17188418 59.31844812 31.00003908 59.35303678 27.828125 59.38671875 C25.62188582 59.4123819 23.41564804 59.43816587 21.20941162 59.46406555 C16.59292565 59.51695186 11.97641623 59.56589657 7.35986328 59.61254883 C1.432217 59.67312138 -4.49517428 59.74732687 -10.42261887 59.82492352 C-14.97430053 59.88237509 -19.52604524 59.93073891 -24.07785797 59.976511 C-26.26445506 59.99997124 -28.45101917 60.02674085 -30.6375351 60.05682945 C-33.68510517 60.09778703 -36.73253686 60.12608727 -39.78027344 60.15112305 C-40.68937973 60.16609329 -41.59848602 60.18106354 -42.53514099 60.19648743 C-44.69106102 60.20748668 -46.84705839 60.11381807 -49 60 C-49.66 59.34 -50.32 58.68 -51 58 C-51 56.68 -51 55.36 -51 54 C-40.11 54 -29.22 54 -18 54 C-17.67 52.02 -17.34 50.04 -17 48 C-16.53377506 46.42717361 -16.02666316 44.86580201 -15.4765625 43.3203125 C-15.1775 42.47339844 -14.8784375 41.62648438 -14.5703125 40.75390625 C-14.25835937 39.88636719 -13.94640625 39.01882813 -13.625 38.125 C-13.32078125 37.26519531 -13.0165625 36.40539062 -12.703125 35.51953125 C-9.68900909 27.03105951 -6.47750181 18.62965414 -3.18359375 10.24609375 C-1.95845199 6.8860515 -0.98252106 3.43882373 0 0 Z " fill="#1132AB" transform="translate(410,649)"/>
<path d="M0 0 C1.00484436 -0.00637985 2.00968872 -0.0127597 3.04498291 -0.01933289 C4.68705719 -0.02100212 4.68705719 -0.02100212 6.36230469 -0.02270508 C7.48102966 -0.02603348 8.59975464 -0.02936188 9.75238037 -0.03279114 C12.12641996 -0.03786652 14.50046671 -0.04019928 16.87451172 -0.04003906 C20.50467771 -0.04221862 24.13453657 -0.06034892 27.76464844 -0.0793457 C30.06803281 -0.08228088 32.37141863 -0.08426484 34.67480469 -0.08520508 C35.76142395 -0.09239059 36.84804321 -0.09957611 37.96759033 -0.10697937 C39.49376984 -0.10236443 39.49376984 -0.10236443 41.05078125 -0.09765625 C41.94267151 -0.09908127 42.83456177 -0.10050629 43.753479 -0.10197449 C47.40447086 0.25471112 50.2613562 1.27207704 53.05810547 3.65966797 C55.00738184 7.61139692 54.82660632 11.56267833 54.90136719 15.91479492 C54.92643341 16.86915939 54.95149963 17.82352386 54.97732544 18.80680847 C55.02626204 20.82481997 55.06782105 22.84302194 55.10253906 24.86132812 C55.1587959 27.93678269 55.24721373 31.01013746 55.33886719 34.0847168 C55.3824827 36.0488672 55.42421073 38.0130606 55.46386719 39.97729492 C55.49181366 40.891064 55.51976013 41.80483307 55.54855347 42.74629211 C55.6168352 48.35317301 54.96043702 52.18750709 52.28417969 57.14526367 C48.19654574 61.23289762 40.53257272 60.19614333 35.00561523 60.24633789 C33.14399659 60.23818804 31.28239891 60.22245382 29.42089844 60.19995117 C28.42588821 60.18819855 27.43087799 60.17644592 26.40571594 60.16433716 C24.32079998 60.13581859 22.23593037 60.10370043 20.15112305 60.06811523 C18.0226782 60.03608151 15.89404147 60.0150121 13.76538086 60.00463867 C10.67057186 59.98942492 7.57773235 59.94211454 4.48339844 59.88745117 C3.53438156 59.88824677 2.58536469 59.88904236 1.60758972 59.88986206 C-2.63717261 59.78057346 -5.12631442 59.50144963 -8.81176758 57.2746582 C-11.61309812 52.67054808 -11.43304836 48.63006223 -11.37988281 43.33276367 C-11.38466644 42.28628662 -11.38945007 41.23980957 -11.39437866 40.16162109 C-11.39777579 37.95270278 -11.38858656 35.74373406 -11.36767578 33.53491211 C-11.34090927 30.15649158 -11.36743174 26.78139353 -11.39941406 23.40307617 C-11.39610993 21.25463135 -11.38970364 19.10618859 -11.37988281 16.95776367 C-11.39000397 15.94931396 -11.40012512 14.94086426 -11.41055298 13.90185547 C-11.29321698 6.87039292 -11.29321698 6.87039292 -8.23681641 3.03198242 C-7.4048877 2.40936523 -6.57295898 1.78674805 -5.71582031 1.14526367 C-4.08481371 -0.48574293 -2.25058738 0.0096531 0 0 Z " fill="#DFE2FB" transform="translate(110.7158203125,468.854736328125)"/>
<path d="M0 0 C0.33 0.33 0.66 0.66 1 1 C4.22865689 1.46058523 7.46292313 1.83682719 10.703125 2.20703125 C14.41929273 3.10084884 16.26137349 4.37631585 19 7 C20.3860015 9.77200299 20.20728063 12.09390556 20.25 15.1875 C20.27578125 16.29480469 20.3015625 17.40210938 20.328125 18.54296875 C19.949627 22.53071549 18.62189728 25.3527484 17 29 C16.48085961 31.42527709 16.02310037 33.86444122 15.625 36.3125 C14.46557331 42.63393015 13.08421617 48.8720397 9 54 C5.6875 55.125 5.6875 55.125 3 55 C3.11859375 55.72445312 3.2371875 56.44890625 3.359375 57.1953125 C4.41947566 65.14606742 4.41947566 65.14606742 2.25 69.5625 C0 72 0 72 -3 74 C-10.92117762 74 -16.29659855 70.59693816 -21.90234375 65.15234375 C-26 60.61117647 -26 60.61117647 -26 57 C-24.37660195 55.29115995 -22.70680947 53.62553283 -21 52 C-18.48806092 48.23209138 -18.63519064 46.47930481 -19 42 C-19.89242932 39.3527326 -20.81082439 36.91195378 -21.9375 34.375 C-25.02589101 27.23802217 -27.76077815 20.25765064 -25.1640625 12.50390625 C-22.88915218 7.3662732 -20.47120399 3.49461983 -15.46484375 0.765625 C-10.45025022 -0.79199835 -5.17965371 -0.53241668 0 0 Z " fill="#D69363" transform="translate(372,529)"/>
<path d="M0 0 C3.34620208 0.63710609 5.64743476 1.88505199 8.47729492 3.75976562 C9.35467819 4.33706421 10.23206146 4.91436279 11.1360321 5.50915527 C12.54402824 6.44821716 12.54402824 6.44821716 13.98046875 7.40625 C14.94906326 8.04614868 15.91765778 8.68604736 16.91560364 9.34533691 C20.00978618 11.39158571 23.0985696 13.44583368 26.1875 15.5 C28.28027105 16.88461033 30.37336617 18.26873097 32.46679688 19.65234375 C36.2833575 22.17883761 40.09988798 24.70536008 43.91088867 27.24023438 C44.67825851 27.75017944 45.44562836 28.26012451 46.23625183 28.78552246 C48 30 48 30 49 31 C53.03960456 30.81572032 55.37707353 30.4904489 58.58984375 27.9609375 C59.36457031 27.10757813 60.13929688 26.25421875 60.9375 25.375 C66.25320038 19.71948316 71.75254163 14.60990871 78 10 C78 10.99 78 11.98 78 13 C78.763125 13.28875 79.52625 13.5775 80.3125 13.875 C83 15 83 15 86 17 C83.05929107 19.58425936 81.14526994 20.96060476 77.3125 22 C73.769012 23.62623648 73.769012 23.62623648 73.21484375 26.75 C72.90906995 28.88784711 72.66372032 31.03535616 72.484375 33.1875 C72 36 72 36 70.890625 37.75 C65.79939658 41.11610144 59.86875838 41.28666177 53.95336914 41.22705078 C53.18181488 41.22734283 52.41026062 41.22763489 51.61532593 41.22793579 C49.08848459 41.22655271 46.56194549 41.21104018 44.03515625 41.1953125 C42.27396302 41.19157873 40.51276771 41.18873348 38.75157166 41.18673706 C34.13363838 41.17912927 29.51583245 41.15950549 24.89794922 41.1373291 C20.17872846 41.11680898 15.45948696 41.10772219 10.74023438 41.09765625 C1.49343387 41.07625675 -7.75327244 41.0421555 -17 41 C-17 40.34 -17 39.68 -17 39 C-16.278125 38.443125 -15.55625 37.88625 -14.8125 37.3125 C-8.0774793 31.77481631 -5.59564666 25.08736205 -3 17 C-2.4121875 15.2365625 -2.4121875 15.2365625 -1.8125 13.4375 C-0.76002394 8.98471666 -0.34831008 4.55552916 0 0 Z " fill="#ECEFFB" transform="translate(465,777)"/>
<path d="M0 0 C2.8999717 2.30727676 3.00534374 3.03060507 3.6875 6.9375 C3.48643885 13.77357925 -1.00575936 18.76926836 -5 24 C-5.67482422 24.91652344 -5.67482422 24.91652344 -6.36328125 25.8515625 C-8.52345767 28.62787171 -10.98907146 30.90766451 -13.64453125 33.1875 C-18.65246924 37.53715757 -23.45354747 42.09243123 -28.26367188 46.65820312 C-30.16378361 48.4522451 -32.07909085 50.22828768 -34 52 C-34.86238281 52.81082031 -35.72476563 53.62164063 -36.61328125 54.45703125 C-39.7252632 56.46886901 -41.35749066 56.62753075 -45 56 C-47.703125 54.13671875 -47.703125 54.13671875 -50.25 51.6875 C-51.52617188 50.48673828 -51.52617188 50.48673828 -52.828125 49.26171875 C-55.59939276 46.37581221 -56.96543887 44.88130884 -57.125 40.8125 C-57.08375 39.884375 -57.0425 38.95625 -57 38 C-54.03 37.34 -51.06 36.68 -48 36 C-47.98324219 35.05898438 -47.96648438 34.11796875 -47.94921875 33.1484375 C-47.25170796 23.09178944 -47.25170796 23.09178944 -43.5234375 19.83984375 C-40.5625 18.3125 -40.5625 18.3125 -37.62890625 17.11328125 C-35.02514661 16.01064901 -33.90006043 15.00894642 -32 13 C-30.329375 12.319375 -30.329375 12.319375 -28.625 11.625 C-24.79582621 9.90847382 -22.81757029 8.05236781 -20 5 C-17 3 -17 3 -13.625 3.0625 C-8.28790019 2.97048104 -5.44283926 -0.85939567 0 0 Z " fill="#0C1330" transform="translate(584,779)"/>
<path d="M0 0 C4.17576168 0.68416434 7.88080407 2.01365009 11.8125 3.5625 C13.55466797 4.24505859 13.55466797 4.24505859 15.33203125 4.94140625 C16.21246094 5.29074219 17.09289062 5.64007812 18 6 C17.67 9.3 17.34 12.6 17 16 C17.66386719 16.2371875 18.32773437 16.474375 19.01171875 16.71875 C22.81049693 18.34750718 26.26493833 20.38868339 29.8125 22.5 C30.55951172 22.93562256 31.30652344 23.37124512 32.07617188 23.82006836 C35.84429355 26.0362604 39.51010729 28.31482502 43.07421875 30.84765625 C51.68829744 36.8705774 57.75609434 38.87911897 68.26171875 38.8828125 C74.49071955 39.07807898 77.93228929 41.08736759 82.5 45.3125 C84.39869006 48.7143197 84.30079969 51.16480399 84 55 C82.20841511 55.02696365 80.41671527 55.04637917 78.625 55.0625 C77.12839844 55.07990234 77.12839844 55.07990234 75.6015625 55.09765625 C73 55 73 55 71 54 C69.83082031 54.10699219 68.66164063 54.21398437 67.45703125 54.32421875 C53.14405847 55.60893834 43.79640167 50.64767969 31.65625 43.52587891 C27.95741524 41.40108872 24.15319987 39.53877936 20.3125 37.6875 C0.42660154 27.85320307 0.42660154 27.85320307 -2 23 C-2.0812664 20.10343333 -2.01078173 17.48867867 -1.75 14.625 C-1.67072266 13.51125 -1.67072266 13.51125 -1.58984375 12.375 C-1.27295564 8.20386811 -0.75818318 4.11771897 0 0 Z " fill="#D89665" transform="translate(305,648)"/>
<path d="M0 0 C1.75 1.5390625 1.75 1.5390625 3 3.625 C5.4310031 7.30735054 7.95493137 9.92246218 11.38671875 12.67578125 C13.03416663 14.02804476 14.5036042 15.48428239 16 17 C2.69131248 16.8923959 -10.61732183 16.77974169 -23.9259119 16.66066074 C-30.10578223 16.60552352 -36.28565737 16.55211836 -42.46557617 16.50268555 C-48.43079595 16.45490614 -54.39595983 16.40255869 -60.36111259 16.34705925 C-62.63563073 16.32669713 -64.91016416 16.30797411 -67.18470955 16.29092598 C-70.37327719 16.26674566 -73.56174042 16.23671014 -76.75024414 16.20532227 C-78.15718285 16.19668907 -78.15718285 16.19668907 -79.59254456 16.18788147 C-84.49421368 16.13312555 -89.16592724 15.82360302 -94 15 C-91.42388964 11.7437715 -89.12992195 11.42363099 -85.10180664 10.88085938 C-83.88525894 10.71058228 -82.66871124 10.54030518 -81.41529846 10.36486816 C-80.0802788 10.19094904 -78.74523057 10.01724903 -77.41015625 9.84375 C-76.0273042 9.65458316 -74.64461055 9.46425513 -73.2620697 9.27282715 C-69.60675547 8.7697157 -65.94959323 8.28159737 -62.29180908 7.79681396 C-58.64719575 7.31156401 -55.0042915 6.81386743 -51.36132812 6.31640625 C-47.12550579 5.73826732 -42.88957717 5.16113783 -38.65249634 4.59228516 C-30.09994189 3.44172092 -21.55958424 2.23210898 -13.04298401 0.83752441 C-8.6536941 0.14341953 -4.44324633 -0.24815536 0 0 Z " fill="#EDF0F9" transform="translate(850,803)"/>
<path d="M0 0 C2.73193359 1.43798828 2.73193359 1.43798828 5.5234375 3.4453125 C6.5659668 4.1765332 7.60849609 4.90775391 8.68261719 5.66113281 C9.49708313 6.23982117 9.49708313 6.23982117 10.32800293 6.8302002 C13.10064424 8.77005722 15.94597318 10.59538725 18.7890625 12.4296875 C19.92602581 13.16889482 21.06274442 13.90847864 22.19921875 14.6484375 C23.93205979 15.77520609 25.66539808 16.90118373 27.39990234 18.02539062 C29.1143908 19.13713293 30.82687869 20.25190021 32.5390625 21.3671875 C33.54146973 22.01800293 34.54387695 22.66881836 35.57666016 23.33935547 C38 25 38 25 40 27 C39.34 27 38.68 27 38 27 C38.05220703 27.92619141 38.05220703 27.92619141 38.10546875 28.87109375 C38.30729726 35.18544297 37.37209404 40.15448255 35 46 C28.37198138 42.8852741 23.07790916 38.21153835 18 33 C17.01 32.175 16.02 31.35 15 30.5 C12.15359856 28.1279988 9.61645011 25.62028655 7 23 C5.13614014 21.2588312 3.26100948 19.52965188 1.375 17.8125 C0.43398438 16.95269531 -0.50703125 16.09289062 -1.4765625 15.20703125 C-3.98743196 12.91431852 -3.98743196 12.91431852 -7 11 C-7 10.34 -7 9.68 -7 9 C-8.17175781 9.20496094 -9.34351563 9.40992188 -10.55078125 9.62109375 C-43.53214988 15.31190008 -43.53214988 15.31190008 -50 11 C-49.34 10.92523437 -48.68 10.85046875 -48 10.7734375 C-40.06913901 9.72012003 -32.38606202 7.98510532 -24.625 6.0625 C-23.07425781 5.68327393 -23.07425781 5.68327393 -21.4921875 5.29638672 C-17.22994213 4.22047342 -13.13915629 3.17260749 -9.1484375 1.30859375 C-5.6669683 -0.13841888 -3.73409789 -0.35238811 0 0 Z " fill="#98A6D9" transform="translate(427,750)"/>
<path d="M0 0 C0.33 0.33 0.66 0.66 1 1 C4.22865689 1.46058523 7.46292313 1.83682719 10.703125 2.20703125 C14.41929273 3.10084884 16.26137349 4.37631585 19 7 C20.40248912 9.80497823 20.16979056 12.18501365 20.1875 15.3125 C20.20167969 16.44300781 20.21585937 17.57351563 20.23046875 18.73828125 C20.00480137 21.93204843 19.36342654 24.1276429 18 27 C17.34 27 16.68 27 16 27 C15.79375 26.401875 15.5875 25.80375 15.375 25.1875 C13.41076615 22.06258251 11.42634728 21.29296124 8 20 C4.45749949 19.33323122 4.45749949 19.33323122 1 20 C-1.66666667 22.33333333 -1.66666667 22.33333333 -4 25 C-6.8125 26.3125 -6.8125 26.3125 -9 27 C-9.33 29.31 -9.66 31.62 -10 34 C-10.99 33.67 -11.98 33.34 -13 33 C-13.28875 32.175 -13.5775 31.35 -13.875 30.5 C-14.24625 29.675 -14.6175 28.85 -15 28 C-17.54775306 27.10613836 -17.54775306 27.10613836 -20 27 C-19.58555328 32.30747265 -19.58555328 32.30747265 -17.875 37.25 C-16.72825891 39.54348218 -17.2975189 40.60562778 -18 43 C-22.6065201 34.60630132 -27.42713222 24.81153403 -26 15 C-23.92294024 8.91306099 -21.23584279 3.9114287 -15.46484375 0.765625 C-10.45025022 -0.79199835 -5.17965371 -0.53241668 0 0 Z " fill="#080707" transform="translate(372,529)"/>
<path d="M0 0 C4.52745057 0.62209244 8.23520856 2.4321777 12.25 4.5 C12.94891357 4.84804688 13.64782715 5.19609375 14.36791992 5.5546875 C18.06097841 7.41171189 21.64265063 9.35894248 25.16015625 11.53125 C34.81571012 17.35232882 41.97095559 18.91124591 53.24609375 18.12109375 C54.48488281 18.08113281 55.72367187 18.04117188 57 18 C57.66 18.66 58.32 19.32 59 20 C52.73 20 46.46 20 40 20 C40.66 21.98 41.32 23.96 42 26 C40.865625 26.38671875 39.73125 26.7734375 38.5625 27.171875 C37.04156737 27.69762949 35.52073961 28.22368746 34 28.75 C33.25621094 29.00265625 32.51242187 29.2553125 31.74609375 29.515625 C27.21291639 31.09238234 23.02181868 32.90505785 18.82421875 35.23925781 C17 36 17 36 13 36 C11.20507116 33.72364984 9.73150066 31.59095061 8.25 29.125 C7.83878906 28.47402344 7.42757813 27.82304688 7.00390625 27.15234375 C4 22.31216258 4 22.31216258 4 20 C3.01 19.67 2.02 19.34 1 19 C-0.65497356 15.69005287 -0.10084335 12.00877 -0.0625 8.375 C-0.05798828 7.57320312 -0.05347656 6.77140625 -0.04882812 5.9453125 C-0.03703168 3.96350994 -0.01909605 1.98174567 0 0 Z " fill="#FAFAF8" transform="translate(319,683)"/>
<path d="M0 0 C0 3 0 3 -1 5 C0.32 5 1.64 5 3 5 C3 5.66 3 6.32 3 7 C3.99 7 4.98 7 6 7 C5.67 9.64 5.34 12.28 5 15 C4.01 15 3.02 15 2 15 C2 15.99 2 16.98 2 18 C0.36395804 19.37073786 -1.30678061 20.70055256 -3 22 C-4.83182369 24.09351279 -5.87557974 25.39567301 -6.4375 28.125 C-6.623125 28.74375 -6.80875 29.3625 -7 30 C-8.32467746 30.6837045 -9.65863633 31.34964186 -11 32 C-12.26804566 34.0335948 -12.26804566 34.0335948 -13 36 C-18.625 36.25 -18.625 36.25 -22 34 C-21.67 37.3 -21.34 40.6 -21 44 C-25.90790538 41.54604731 -28.94574498 38.54351986 -32 34 C-32.4375 30.5 -32.4375 30.5 -32 28 C-29.03 27.34 -26.06 26.68 -23 26 C-22.98324219 25.05898438 -22.96648438 24.11796875 -22.94921875 23.1484375 C-22.25170796 13.09178944 -22.25170796 13.09178944 -18.5234375 9.83984375 C-15.5625 8.3125 -15.5625 8.3125 -12.62890625 7.11328125 C-10.01890307 6.00800502 -8.90518323 5.0128207 -7 3 C-5.17578125 2.05078125 -5.17578125 2.05078125 -3.3125 1.3125 C-1.6728125 0.6628125 -1.6728125 0.6628125 0 0 Z " fill="#192140" transform="translate(559,789)"/>
<path d="M0 0 C0.99 0.33 1.98 0.66 3 1 C1.38405168 3.04119788 -0.2856382 5.04072937 -2 7 C-2.66 7 -3.32 7 -4 7 C-4 7.66 -4 8.32 -4 9 C-5.13429443 9.61875 -5.13429443 9.61875 -6.29150391 10.25 C-9.12874334 11.80889409 -11.95640645 13.38366142 -14.77880859 14.96923828 C-15.99533364 15.648446 -17.2153365 16.32146723 -18.43896484 16.98779297 C-31.93425245 24.34785579 -37.60152235 32.51909733 -42.015625 47.1875 C-43.78561815 54.04271156 -44.89522299 61.01144846 -46 68 C-45.34 68.33 -44.68 68.66 -44 69 C-44.2165625 70.61068359 -44.2165625 70.61068359 -44.4375 72.25390625 C-44.62523429 73.69007356 -44.81272109 75.12627324 -45 76.5625 C-45.09539062 77.26697266 -45.19078125 77.97144531 -45.2890625 78.69726562 C-46.38655631 86.55572621 -46.38655631 86.55572621 -45.3125 94.3125 C-43.51082143 96.62894388 -41.75908489 97.01899204 -39 98 C-36.69 99.32 -34.38 100.64 -32 102 C-32 107.61 -32 113.22 -32 119 C-33.485 118.01 -33.485 118.01 -35 117 C-35 116.34 -35 115.68 -35 115 C-36.485 114.505 -36.485 114.505 -38 114 C-38 110.7 -38 107.4 -38 104 C-38.98742187 103.45730469 -39.97484375 102.91460938 -40.9921875 102.35546875 C-42.28666715 101.63318662 -43.58092658 100.91050971 -44.875 100.1875 C-45.52597656 99.83107422 -46.17695313 99.47464844 -46.84765625 99.10742188 C-50.06597903 97.29918897 -51.9196783 96.12048255 -54 93 C-54.36018549 88.67777408 -53.84107992 84.9349536 -53 80.6875 C-52.27864529 77.02061356 -51.90604045 73.67239227 -52 69.9375 C-52.09810365 64.71348049 -51.20874857 60.06718326 -50 55 C-49.72027344 53.73414063 -49.44054687 52.46828125 -49.15234375 51.1640625 C-46.73658206 40.5555539 -43.85504985 28.71602984 -34.37109375 22.19140625 C-33.40300781 21.65386719 -32.43492187 21.11632812 -31.4375 20.5625 C-29.84421875 19.6653125 -29.84421875 19.6653125 -28.21875 18.75 C-26.20433255 17.65478275 -24.18430899 16.5697454 -22.15625 15.5 C-16.11355007 12.30500923 -10.71701608 8.73384678 -5.3125 4.5390625 C-3 3 -3 3 0 3 C0 2.01 0 1.02 0 0 Z " fill="#9AA9DC" transform="translate(350,579)"/>
<path d="M0 0 C0.66 0 1.32 0 2 0 C3.74218445 1.93883314 5.34680169 3.87855971 6.9375 5.9375 C7.65643433 6.86248291 7.65643433 6.86248291 8.38989258 7.80615234 C12.1908287 12.77884281 15.74765667 17.89704927 19.1875 23.125 C19.66888428 23.84679443 20.15026855 24.56858887 20.64624023 25.31225586 C21.30668335 26.3371814 21.30668335 26.3371814 21.98046875 27.3828125 C22.37129639 27.98496582 22.76212402 28.58711914 23.16479492 29.20751953 C24 31 24 31 24 35 C42.15 35 60.3 35 79 35 C79 35.33 79 35.66 79 36 C53.26 36 27.52 36 1 36 C0.34 39.3 -0.32 42.6 -1 46 C-1.76669019 48.31481462 -2.59246371 50.61169303 -3.5 52.875 C-4.13421875 54.47988281 -4.13421875 54.47988281 -4.78125 56.1171875 C-5.7747327 58.4671562 -6.82054514 60.73937819 -8 63 C-9.44796872 54.26047454 -10.29211698 45.86088167 -10 37 C-7.91999989 36.15838146 -5.83585854 35.32699237 -3.75 34.5 C-2.58984375 34.0359375 -1.4296875 33.571875 -0.234375 33.09375 C3 32 3 32 7 32 C5.46558103 20.99170635 3.71873928 10.51440498 0 0 Z " fill="#B4C1F0" transform="translate(409,613)"/>
<path d="M0 0 C3.30156574 2.76874822 6.52508811 5.50134252 9.5 8.625 C11.64336848 10.66120006 13.13190878 11.68268494 15.6875 13 C19 15 19 15 20.4375 17.375 C21.46496558 22.16983938 21.63056253 24.86933615 19.1875 29.25 C17 32 17 32 14 34 C6.07882238 34 0.70340145 30.59693816 -4.90234375 25.15234375 C-9 20.61117647 -9 20.61117647 -9 17 C-7.37660195 15.29115995 -5.70680947 13.62553283 -4 12 C-2.09681116 9.14521674 -1.5380901 7.58058692 -0.875 4.3125 C-0.70742188 3.50425781 -0.53984375 2.69601562 -0.3671875 1.86328125 C-0.24601562 1.24839844 -0.12484375 0.63351562 0 0 Z " fill="#C98C61" transform="translate(355,569)"/>
<path d="M0 0 C1.30066406 -0.04898437 2.60132813 -0.09796875 3.94140625 -0.1484375 C7.4375 0.375 7.4375 0.375 9.77734375 2.8359375 C10.59912109 4.09277344 10.59912109 4.09277344 11.4375 5.375 C12.0975 5.705 12.7575 6.035 13.4375 6.375 C13.4375 10.665 13.4375 14.955 13.4375 19.375 C3.5375 19.375 -6.3625 19.375 -16.5625 19.375 C-16.5625 6.375 -16.5625 6.375 -12.5625 1.375 C-8.55256377 -0.01437756 -4.21909632 0.10893397 0 0 Z " fill="#FDFDFD" transform="translate(134.5625,498.625)"/>
<path d="M0 0 C8.92738241 -0.04634244 17.8547234 -0.08187889 26.78219986 -0.10362434 C30.92759704 -0.11406111 35.07291191 -0.12821835 39.21826172 -0.15087891 C43.21882689 -0.17261111 47.21931291 -0.18456943 51.21993256 -0.18975449 C52.74615475 -0.19344956 54.27237261 -0.20066511 55.7985611 -0.21146011 C57.93644064 -0.22598018 60.07399314 -0.22797775 62.21191406 -0.22705078 C63.4288092 -0.231492 64.64570435 -0.23593323 65.8994751 -0.24050903 C68.85589163 -0.01117855 70.51569885 0.44578417 73 2 C73 2.66 73 3.32 73 4 C67.90582947 5.03348066 63.04373745 5.13568872 57.87353516 5.11352539 C56.97533051 5.11367142 56.07712585 5.11381744 55.15170288 5.1139679 C52.19746443 5.11327398 49.24328987 5.10550605 46.2890625 5.09765625 C44.23497553 5.09579022 42.18088811 5.09436719 40.12680054 5.09336853 C34.73129031 5.08955794 29.33580717 5.07974012 23.94030762 5.06866455 C18.43026089 5.05841906 12.92020977 5.05386419 7.41015625 5.04882812 C-3.39324104 5.03811653 -14.19661826 5.02105764 -25 5 C-25 4.67 -25 4.34 -25 4 C-17.08 4 -9.16 4 -1 4 C-0.67 2.68 -0.34 1.36 0 0 Z " fill="#0C277F" transform="translate(393,703)"/>
<path d="M0 0 C2.97361628 1.78152067 5.42653612 3.85307225 7 7 C7.55512815 11.63213493 7.6364242 14.98172127 5.125 19 C1.85225725 22.08022847 -0.46392693 22.34233668 -4.96484375 22.28515625 C-8.19035622 21.83321304 -9.80900197 20.31988026 -12 18 C-14.28853994 14.73065722 -14.47162218 11.9301848 -14 8 C-10.41929156 1.57941934 -7.48964493 -0.88860194 0 0 Z " fill="#F4F6F6" transform="translate(905,769)"/>
<path d="M0 0 C0.33 0.99 0.66 1.98 1 3 C3.39068734 4.10636395 3.39068734 4.10636395 6 5 C6.99 5.66 7.98 6.32 9 7 C6.05929107 9.58425936 4.14526994 10.96060476 0.3125 12 C-3.230988 13.62623648 -3.230988 13.62623648 -3.78515625 16.75 C-4.09093005 18.88784711 -4.33627968 21.03535616 -4.515625 23.1875 C-5.04604164 26.26733857 -5.52435471 27.17897245 -8 29 C-10.75 30.125 -10.75 30.125 -14 30 C-16.67498012 27.95475479 -18.81005111 25.54553337 -21 23 C-21.66 22.34 -22.32 21.68 -23 21 C-22.59652344 20.65710938 -22.19304688 20.31421875 -21.77734375 19.9609375 C-14.31609281 13.52937087 -7.17870846 6.742658 0 0 Z " fill="#CC8F65" transform="translate(542,787)"/>
<path d="M0 0 C0.78375 0.04125 1.5675 0.0825 2.375 0.125 C3.035 1.775 3.695 3.425 4.375 5.125 C5.035 5.125 5.695 5.125 6.375 5.125 C6 7.5625 6 7.5625 5.375 10.125 C4.385 10.62 4.385 10.62 3.375 11.125 C3.045 12.115 2.715 13.105 2.375 14.125 C1.715 14.125 1.055 14.125 0.375 14.125 C0.045 13.135 -0.285 12.145 -0.625 11.125 C-2.58394361 11.23806697 -2.58394361 11.23806697 -4.625 12.125 C-4.87765625 12.87265625 -5.1303125 13.6203125 -5.390625 14.390625 C-7.03885974 18.04177791 -9.242856 19.39794279 -12.5 21.6875 C-16.87056193 24.76590439 -16.87056193 24.76590439 -20.7578125 28.40234375 C-22.625 30.125 -22.625 30.125 -26.625 30.125 C-26.625 28.145 -26.625 26.165 -26.625 24.125 C-23.655 23.465 -20.685 22.805 -17.625 22.125 C-17.60824219 21.18398438 -17.59148438 20.24296875 -17.57421875 19.2734375 C-16.87687323 9.21917225 -16.87687323 9.21917225 -13.11328125 5.9296875 C-10.32976086 4.48152918 -7.53427382 3.29230122 -4.625 2.125 C-2.625 0.125 -2.625 0.125 0 0 Z " fill="#0B1029" transform="translate(553.625,792.875)"/>
<path d="M0 0 C2.9375 1.5 2.9375 1.5 5 4 C5.92895819 7.97659297 5.59498562 10.9652424 3.5625 14.5 C-0.1319249 16.66259019 -3.81434414 16.85563131 -8 16 C-10.10675865 14.4724832 -10.89084131 13.64455605 -11.328125 11.0625 C-11.30234375 10.381875 -11.2765625 9.70125 -11.25 9 C-11.23453125 8.319375 -11.2190625 7.63875 -11.203125 6.9375 C-11 5 -11 5 -10 2 C-6.2626144 -0.4915904 -4.42668417 -0.45793285 0 0 Z " fill="#FCFCFC" transform="translate(136,480)"/>
<path d="M0 0 C0.103125 0.639375 0.20625 1.27875 0.3125 1.9375 C0.6528125 2.9584375 0.6528125 2.9584375 1 4 C1.99 4.33 2.98 4.66 4 5 C3.67 5.99 3.34 6.98 3 8 C0.69 8.33 -1.62 8.66 -4 9 C-3.67 10.65 -3.34 12.3 -3 14 C-7.68091299 14 -8.62101604 13.00354129 -12 10 C-12.99 11.485 -12.99 11.485 -14 13 C-13.01 13 -12.02 13 -11 13 C-11.33 15.31 -11.66 17.62 -12 20 C-11.34 20 -10.68 20 -10 20 C-10.33 20.66 -10.66 21.32 -11 22 C-16.37109375 20.33984375 -16.37109375 20.33984375 -18 19 C-19.0859375 15.77734375 -19.0859375 15.77734375 -19 12 C-17.44416999 9.44947725 -15.40731308 7.60206013 -13.1875 5.625 C-12.62740234 5.09261719 -12.06730469 4.56023438 -11.49023438 4.01171875 C-7.18931088 -0.02714131 -5.74816063 -1.36140647 0 0 Z " fill="#151B37" transform="translate(441,731)"/>
<path d="M0 0 C9.70219012 2.77205432 18.01801358 9.43165083 23.375 17.9375 C28.83354713 27.83111667 29.79733223 39.28693114 26.875 50.25 C23.63890767 59.41641966 18.68836224 66.10688986 11 72 C10.67 71.01 10.34 70.02 10 69 C10.99 69 11.98 69 13 69 C13.226875 68.29875 13.45375 67.5975 13.6875 66.875 C15.28470477 63.37636099 17.50788129 60.91760239 20 58 C25.57076989 49.95333238 25.74350277 41.53623121 25 32 C24.38960057 29.47019429 23.64811978 27.17114188 22.65625 24.76953125 C22 23 22 23 22 20 C21.34 20 20.68 20 20 20 C20 19.01 20 18.02 20 17 C19.01 16.67 18.02 16.34 17 16 C16.54238281 15.23042969 16.08476563 14.46085938 15.61328125 13.66796875 C12.31675215 8.21632377 6.185416 4.86663048 0.375 2.5625 C-0.40875 2.376875 -1.1925 2.19125 -2 2 C-1.34 1.34 -0.68 0.68 0 0 Z " fill="#29356C" transform="translate(899,744)"/>
<path d="M0 0 C-0.99 1.485 -0.99 1.485 -2 3 C-3.32 3 -4.64 3 -6 3 C-6.08636719 3.57105469 -6.17273438 4.14210938 -6.26171875 4.73046875 C-7.79638622 13.58648563 -10.84129134 22.02914174 -15 30 C-16.44796872 21.26047454 -17.29211698 12.86088167 -17 4 C-14.92227529 3.13227971 -12.83756823 2.28126381 -10.75 1.4375 C-9.58984375 0.96183594 -8.4296875 0.48617187 -7.234375 -0.00390625 C-4.13733356 -0.95770524 -2.92678299 -1.20983356 0 0 Z " fill="#C48C66" transform="translate(416,646)"/>
<path d="M0 0 C-0.40158033 2.8913784 -0.74403411 4.67236367 -2.5625 7 C-4.35152855 9.48908319 -4.24978605 11.00256744 -4 14 C-5.65 13.67 -7.3 13.34 -9 13 C-8.01 13.99 -7.02 14.98 -6 16 C-7.8125 18 -7.8125 18 -10 20 C-13 20 -13 20 -15.625 17.75 C-17.76579221 15.27118796 -18.64840943 14.16431511 -19 11 C-17.824375 10.38125 -17.824375 10.38125 -16.625 9.75 C-13.92922917 8.27658809 -13.92922917 8.27658809 -13.078125 6.06640625 C-11.77749348 3.57352917 -10.4945289 2.66733786 -8.125 1.1875 C-7.44695312 0.74792969 -6.76890625 0.30835938 -6.0703125 -0.14453125 C-3.59237953 -1.16843185 -2.47510086 -0.90457722 0 0 Z " fill="#111633" transform="translate(464,709)"/>
<path d="M0 0 C0.28875 0.61875 0.5775 1.2375 0.875 1.875 C1.93720042 4.13325765 1.93720042 4.13325765 4 6 C4.23046875 8.27734375 4.23046875 8.27734375 4.1875 10.9375 C4.18105469 11.81277344 4.17460937 12.68804688 4.16796875 13.58984375 C4 16 4 16 3 19 C-0.93504593 21.89105415 -3.45096267 23.38958408 -8.375 22.875 C-9.57125 22.58625 -10.7675 22.2975 -12 22 C-12.33 21.34 -12.66 20.68 -13 20 C-11.02 20 -9.04 20 -7 20 C-6.7525 19.05125 -6.505 18.1025 -6.25 17.125 C-5.09123392 13.04014115 -3.51670424 9.1575756 -1.90234375 5.234375 C-1.20717256 3.51299872 -0.58706041 1.76118123 0 0 Z " fill="#CC9872" transform="translate(473,687)"/>
<path d="M0 0 C1.18851562 0.10183594 2.37703125 0.20367187 3.6015625 0.30859375 C4.51679688 0.39238281 5.43203125 0.47617188 6.375 0.5625 C6.705 1.5525 7.035 2.5425 7.375 3.5625 C8.70296291 3.91662344 10.03716607 4.24771554 11.375 4.5625 C14.11596703 6.75527363 15.81323366 9.43896731 17.375 12.5625 C17.5625 15.375 17.5625 15.375 17.375 17.5625 C16.055 17.5625 14.735 17.5625 13.375 17.5625 C11.453125 15.4453125 11.453125 15.4453125 9.625 12.6875 C9.01140625 11.78257812 8.3978125 10.87765625 7.765625 9.9453125 C6.375 7.5625 6.375 7.5625 6.375 5.5625 C1.425 5.2325 -3.525 4.9025 -8.625 4.5625 C-8.625 3.2425 -8.625 1.9225 -8.625 0.5625 C-5.68113377 -0.90943312 -3.25109964 -0.28686173 0 0 Z " fill="#D0D5F2" transform="translate(291.625,247.4375)"/>
<path d="M0 0 C25.74 0 51.48 0 78 0 C77.25107424 2.99570305 76.42395057 5.83353744 75.4375 8.75 C75.16808594 9.54921875 74.89867187 10.3484375 74.62109375 11.171875 C74.41613281 11.77515625 74.21117187 12.3784375 74 13 C72.8125 11.5 72.8125 11.5 72 9 C72.99 6.36 73.98 3.72 75 1 C51.24 1 27.48 1 3 1 C1.7752329 4.06191774 0.62398567 7.0211957 -0.40234375 10.13671875 C-0.65306641 10.87857422 -0.90378906 11.62042969 -1.16210938 12.38476562 C-1.68218823 13.92928193 -2.1951344 15.47621707 -2.70117188 17.02539062 C-3.07918945 18.13237305 -3.07918945 18.13237305 -3.46484375 19.26171875 C-3.79923462 20.26658325 -3.79923462 20.26658325 -4.14038086 21.29174805 C-5 23 -5 23 -8 25 C-5.56324176 16.58030691 -2.77539624 8.32618873 0 0 Z " fill="#2840A1" transform="translate(410,649)"/>
<path d="M0 0 C0 3 0 3 -1 5 C0.32 5 1.64 5 3 5 C3 5.66 3 6.32 3 7 C3.99 7 4.98 7 6 7 C5.67 9.64 5.34 12.28 5 15 C4.01 15 3.02 15 2 15 C2 15.99 2 16.98 2 18 C0.03125 19.82421875 0.03125 19.82421875 -2.5 21.6875 C-3.3353125 22.31011719 -4.170625 22.93273437 -5.03125 23.57421875 C-6.00578125 24.27998047 -6.00578125 24.27998047 -7 25 C-10.09547238 22.2048969 -10.73138708 20.20826906 -11 16 C-10.34 15.34 -9.68 14.68 -9 14 C-6.875 14.375 -6.875 14.375 -5 15 C-5 15.99 -5 16.98 -5 18 C-4.34 18 -3.68 18 -3 18 C-2.87625 17.360625 -2.7525 16.72125 -2.625 16.0625 C-2.41875 15.381875 -2.2125 14.70125 -2 14 C-1.34 13.67 -0.68 13.34 0 13 C0.65213292 10.97536745 0.65213292 10.97536745 1 9 C0.34 9 -0.32 9 -1 9 C-1.2475 8.195625 -1.495 7.39125 -1.75 6.5625 C-2.72238859 3.828919 -2.72238859 3.828919 -5.125 3.1875 C-5.74375 3.125625 -6.3625 3.06375 -7 3 C-4.69 2.01 -2.38 1.02 0 0 Z " fill="#292840" transform="translate(559,789)"/>
<path d="M0 0 C11.22 0 22.44 0 34 0 C33.67 1.32 33.34 2.64 33 4 C32.30962646 4.02505615 31.61925293 4.0501123 30.90795898 4.07592773 C27.75098591 4.1926566 24.59425543 4.31503178 21.4375 4.4375 C20.35146484 4.47681641 19.26542969 4.51613281 18.14648438 4.55664062 C11.46744524 4.80769253 11.46744524 4.80769253 4.84765625 5.66015625 C3.90792969 5.77230469 2.96820313 5.88445313 2 6 C1.34 5.34 0.68 4.68 0 4 C0 2.68 0 1.36 0 0 Z " fill="#243D97" transform="translate(359,703)"/>
<path d="M0 0 C3.30156574 2.76874822 6.52508811 5.50134252 9.5 8.625 C11.72481042 10.7385699 13.06819215 11.56426017 15.75 12.8125 C19 15 19 15 19.66796875 17.02734375 C19.9375 19.25 19.9375 19.25 20 23 C11.31900061 20.55846892 3.42119033 11.51980235 -1 4 C-0.71484375 1.69921875 -0.71484375 1.69921875 0 0 Z " fill="#B3774D" transform="translate(355,569)"/>
<path d="M0 0 C2.0625 0.4375 2.0625 0.4375 4 1 C-3.04091488 7.12253468 -10.67728543 8.63810924 -19.75 8.4375 C-21.12865234 8.44813477 -21.12865234 8.44813477 -22.53515625 8.45898438 C-27.41545171 8.41307711 -31.12563308 8.32902536 -35 5 C-35 4.34 -35 3.68 -35 3 C-33.50726562 3.23976563 -33.50726562 3.23976563 -31.984375 3.484375 C-21.55542702 4.96224602 -10.90171255 4.84513183 -1 1 C-0.67 0.67 -0.34 0.34 0 0 Z " fill="#233EA5" transform="translate(905,815)"/>
<path d="M0 0 C0.99 0.33 1.98 0.66 3 1 C1.38405168 3.04119788 -0.2856382 5.04072937 -2 7 C-2.66 7 -3.32 7 -4 7 C-4 7.66 -4 8.32 -4 9 C-7.60875236 11.10392821 -11.22005862 13.20338301 -14.83374023 15.29882812 C-16.06133057 16.01148691 -17.2882293 16.72533846 -18.5144043 17.44042969 C-20.28251176 18.47128731 -22.05310658 19.49775292 -23.82421875 20.5234375 C-24.88729248 21.14138184 -25.95036621 21.75932617 -27.0456543 22.39599609 C-29.68263984 23.82769554 -32.13694707 25.10406215 -35 26 C-35.99 25.67 -36.98 25.34 -38 25 C-32.99382242 21.95476756 -27.96481626 18.9729926 -22.84545898 16.12109375 C-16.60857686 12.63670664 -10.85789562 8.87422148 -5.20703125 4.46875 C-3 3 -3 3 0 3 C0 2.01 0 1.02 0 0 Z " fill="#A4B0E0" transform="translate(350,579)"/>
<path d="M0 0 C-0.33 1.32 -0.66 2.64 -1 4 C-1.66 3.67 -2.32 3.34 -3 3 C-3.2475 3.969375 -3.495 4.93875 -3.75 5.9375 C-4.1625 6.948125 -4.575 7.95875 -5 9 C-7.125 9.875 -7.125 9.875 -9 10 C-9 10.99 -9 11.98 -9 13 C-9.99 13 -10.98 13 -12 13 C-12 12.34 -12 11.68 -12 11 C-13.32 11.33 -14.64 11.66 -16 12 C-16 8.15240462 -15.00643742 6.27718112 -13 3 C-8.47135911 -1.01402261 -5.83729878 -1.40095171 0 0 Z " fill="#191E3B" transform="translate(574,783)"/>
<path d="M0 0 C2.22189824 2.22189824 2.92598892 4.08482708 4 7 C5.32 6.67 6.64 6.34 8 6 C7.01 8.31 6.02 10.62 5 13 C4.34 12.67 3.68 12.34 3 12 C2.855625 11.34 2.71125 10.68 2.5625 10 C2.376875 9.34 2.19125 8.68 2 8 C1.01 7.67 0.02 7.34 -1 7 C-1.33 8.98 -1.66 10.96 -2 13 C-5.3 13.66 -8.6 14.32 -12 15 C-10.87349586 10.49398346 -10.13306537 9.92363935 -6.5625 7.25 C-5.75941406 6.63640625 -4.95632813 6.0228125 -4.12890625 5.390625 C-2 4 -2 4 0 4 C0 2.68 0 1.36 0 0 Z " fill="#1B223C" transform="translate(547,806)"/>
<path d="M0 0 C2.475 0.495 2.475 0.495 5 1 C6.15774649 5.63098598 7.19218189 11.61563621 5 16 C3.35 16 1.7 16 0 16 C0 10.72 0 5.44 0 0 Z " fill="#D1D6F3" transform="translate(271,351)"/>
<path d="M0 0 C0 0.99 0 1.98 0 3 C-2.01171875 4.82421875 -2.01171875 4.82421875 -4.6875 6.6875 C-5.99267578 7.62142578 -5.99267578 7.62142578 -7.32421875 8.57421875 C-10.19158529 10.10208559 -11.80677922 10.3049382 -15 10 C-14.68052282 6.87977287 -14.39596573 5.38451218 -12.109375 3.1640625 C-11.33078125 2.65617187 -10.5521875 2.14828125 -9.75 1.625 C-8.59757812 0.83996094 -8.59757812 0.83996094 -7.421875 0.0390625 C-4.49277117 -1.21761753 -3.00308549 -0.90518534 0 0 Z " fill="#D3D7F2" transform="translate(270,373)"/>
<path d="M0 0 C1.65 0 3.3 0 5 0 C5.05384521 2.29141286 5.09272087 4.58318188 5.125 6.875 C5.14820313 8.15117187 5.17140625 9.42734375 5.1953125 10.7421875 C5 14 5 14 3 16 C1.68 15.67 0.36 15.34 -1 15 C-0.67 10.05 -0.34 5.1 0 0 Z " fill="#D4D9F2" transform="translate(310,295)"/>
<path d="M0 0 C2.35694954 0.09031574 4.71153582 0.24688128 7.0625 0.4375 C8.35285156 0.53933594 9.64320313 0.64117187 10.97265625 0.74609375 C12.47119141 0.87177734 12.47119141 0.87177734 14 1 C14.33 2.65 14.66 4.3 15 6 C10.05 6 5.1 6 0 6 C-0.33 4.35 -0.66 2.7 -1 1 C-0.67 0.67 -0.34 0.34 0 0 Z " fill="#D1D5F0" transform="translate(189,389)"/>
<path d="M0 0 C3.24271506 0.5590888 4.93057424 1.4132178 7 4 C7 4.66 7 5.32 7 6 C7.99 6.33 8.98 6.66 10 7 C10.33 9.31 10.66 11.62 11 14 C9.68 14 8.36 14 7 14 C5.62109375 12.57421875 5.62109375 12.57421875 4.4375 10.6875 C3.15999129 8.68956015 2.05017905 7.04783424 0.328125 5.40625 C-0.11015625 4.9421875 -0.5484375 4.478125 -1 4 C-0.6875 1.8125 -0.6875 1.8125 0 0 Z " fill="#D1D7F2" transform="translate(259,332)"/>
<path d="M0 0 C1.32 0.33 2.64 0.66 4 1 C3.63366929 7.1055119 2.37788249 9.9206095 -2 14 C-4.8125 14.375 -4.8125 14.375 -7 14 C-6.34097701 10.42959697 -4.83770842 7.82267745 -2.9375 4.75 C-2.38964844 3.85796875 -1.84179688 2.9659375 -1.27734375 2.046875 C-0.64505859 1.03367187 -0.64505859 1.03367187 0 0 Z " fill="#CED3F0" transform="translate(307,317)"/>
<path d="M0 0 C4.45936282 -0.3913152 6.97791276 0.78240738 10.8125 3 C11.78832031 3.556875 12.76414063 4.11375 13.76953125 4.6875 C14.50558594 5.120625 15.24164063 5.55375 16 6 C15.67 7.32 15.34 8.64 15 10 C9.14727744 9.54979057 4.91779881 6.96160773 0 4 C0 2.68 0 1.36 0 0 Z " fill="#CDD3F0" transform="translate(220,305)"/>
<path d="M0 0 C1.65 0 3.3 0 5 0 C6.7479503 5.24385089 7.19392201 9.47322267 7 15 C5.35 15 3.7 15 2 15 C1.66048381 13.43883181 1.32867456 11.87598662 1 10.3125 C0.814375 9.44238281 0.62875 8.57226562 0.4375 7.67578125 C0.01027953 5.06287036 -0.07616201 2.64186962 0 0 Z " fill="#CFD5F1" transform="translate(308,272)"/>
<path d="M0 0 C0 1.65 0 3.3 0 5 C-5.10334017 6.905247 -9.46342706 8.42589023 -15 8 C-15 5.6875 -15 5.6875 -14 3 C-9.63502159 0.33309195 -5.06401411 -0.37980106 0 0 Z " fill="#CFD4EF" transform="translate(249,383)"/>
<path d="M0 0 C1.63001953 0.01353516 1.63001953 0.01353516 3.29296875 0.02734375 C4.12441406 0.03894531 4.95585937 0.05054688 5.8125 0.0625 C6.1425 1.0525 6.4725 2.0425 6.8125 3.0625 C6.4825 3.7225 6.1525 4.3825 5.8125 5.0625 C2.65234375 5.4765625 2.65234375 5.4765625 -1.25 5.6875 C-2.54035156 5.76226562 -3.83070313 5.83703125 -5.16015625 5.9140625 C-6.15917969 5.96304687 -7.15820312 6.01203125 -8.1875 6.0625 C-8.5175 4.4125 -8.8475 2.7625 -9.1875 1.0625 C-5.90230525 -0.03256492 -3.45086585 -0.03710608 0 0 Z " fill="#D2D7F1" transform="translate(220.1875,388.9375)"/>
<path d="M0 0 C4.29053133 0.48756038 6.69594818 1.24662348 10 4 C11.31836295 4.69580267 12.64791086 5.37224433 14 6 C14 7.32 14 8.64 14 10 C9.02693484 9.50269348 5.36200187 8.44697666 1 6 C1 5.34 1 4.68 1 4 C0.34 4 -0.32 4 -1 4 C-0.67 2.68 -0.34 1.36 0 0 Z " fill="#D0D5F0" transform="translate(280,323)"/>
<path d="M0 0 C0.33 0 0.66 0 1 0 C1.33 12.21 1.66 24.42 2 37 C2.66 37.33 3.32 37.66 4 38 C1.525 38.495 1.525 38.495 -1 39 C-1.02491426 34.73161194 -1.04296047 30.46326361 -1.05493164 26.19482422 C-1.05992785 24.74592348 -1.06672709 23.29702769 -1.07543945 21.84814453 C-1.16225376 7.02843217 -1.16225376 7.02843217 0 0 Z " fill="#DEE0E0" transform="translate(401,611)"/>
<path d="M0 0 C5.12591427 0.32036964 9.63217446 3.22268699 13 7 C13.23046875 9.703125 13.23046875 9.703125 13 12 C8.95504581 11.46870129 6.74253628 10.37432099 3.6875 7.6875 C2.99011719 7.09324219 2.29273438 6.49898438 1.57421875 5.88671875 C0 4 0 4 0 0 Z " fill="#CDD4F0" transform="translate(241,317)"/>
<path d="M0 0 C1.32 0 2.64 0 4 0 C4.87144869 1.5529276 5.72153657 3.11785436 6.5625 4.6875 C7.03816406 5.55761719 7.51382812 6.42773438 8.00390625 7.32421875 C9.14268368 10.38328753 8.92718689 11.91863039 8 15 C5.48075592 14.63481546 4.32238586 14.41691257 2.734375 12.36328125 C0.6698976 8.06228667 -0.48878089 4.88780895 0 0 Z " fill="#D0D5F2" transform="translate(252,287)"/>
<path d="M0 0 C1.65 0 3.3 0 5 0 C3.07289294 10.55808656 3.07289294 10.55808656 1 15 C-0.32 15 -1.64 15 -3 15 C-3.3152595 9.01006953 -2.68219822 5.36439644 0 0 Z " fill="#CED4F0" transform="translate(254,265)"/>
<path d="M0 0 C2.35694954 0.09031574 4.71153582 0.24688128 7.0625 0.4375 C8.35285156 0.53933594 9.64320313 0.64117188 10.97265625 0.74609375 C12.47119141 0.87177734 12.47119141 0.87177734 14 1 C14.5625 2.9375 14.5625 2.9375 15 5 C14.67 5.33 14.34 5.66 14 6 C11.64305046 5.90968426 9.28846418 5.75311872 6.9375 5.5625 C5.64714844 5.46066406 4.35679687 5.35882812 3.02734375 5.25390625 C1.52880859 5.12822266 1.52880859 5.12822266 0 5 C-0.5625 3.0625 -0.5625 3.0625 -1 1 C-0.67 0.67 -0.34 0.34 0 0 Z " fill="#D3D8E9" transform="translate(184,766)"/>
<path d="M0 0 C4.28070699 0.47563411 6.3004085 2.80311533 9 6 C10.3125 9.3125 10.3125 9.3125 11 12 C9.68 12.33 8.36 12.66 7 13 C5.63080716 11.59785066 4.28001291 10.17771527 2.9375 8.75 C2.18339844 7.96109375 1.42929687 7.1721875 0.65234375 6.359375 C-1 4 -1 4 -0.74609375 1.703125 C-0.49988281 1.14109375 -0.25367188 0.5790625 0 0 Z " fill="#CDD3F0" transform="translate(264,307)"/>
<path d="M0 0 C5.77378925 0.4811491 9.95859836 2.18467181 15 5 C15 6.32 15 7.64 15 9 C9.54520815 8.43179252 5.08940744 7.05362055 0 5 C0 3.35 0 1.7 0 0 Z " fill="#D1D6F0" transform="translate(199,296)"/>
<path d="M0 0 C0 2.25 0 2.25 -1 5 C-4.88187712 7.75722113 -9.2788052 9.40985065 -14 10 C-14 8.35 -14 6.7 -14 5 C-12.61217515 4.1533966 -11.21430603 3.32324661 -9.8125 2.5 C-9.03519531 2.0359375 -8.25789063 1.571875 -7.45703125 1.09375 C-4.75896614 -0.10729647 -2.9193018 -0.20741043 0 0 Z " fill="#CDD3F0" transform="translate(276,250)"/>
<path d="M0 0 C5.45479185 0.56820748 9.91059256 1.94637945 15 4 C15 5.32 15 6.64 15 8 C9.17728663 8.59720137 5.0790596 6.528243 0 4 C0 2.68 0 1.36 0 0 Z " fill="#CED4EF" transform="translate(166,384)"/>
<path d="M0 0 C3.740665 0.55570855 5.3425749 2.009785 7.8125 4.8125 C8.43769531 5.49957031 9.06289062 6.18664062 9.70703125 6.89453125 C11 9 11 9 10.69921875 11.26171875 C10.46847656 11.83535156 10.23773438 12.40898438 10 13 C7.16977199 12.63602389 6.09216828 12.09235225 4.04296875 10.0390625 C3.43066406 9.24242187 2.81835938 8.44578125 2.1875 7.625 C1.56230469 6.83351563 0.93710938 6.04203125 0.29296875 5.2265625 C-0.13371094 4.49179687 -0.56039062 3.75703125 -1 3 C-0.67 2.01 -0.34 1.02 0 0 Z " fill="#D0D4EA" transform="translate(84,716)"/>
<path d="M0 0 C3.96001753 0.51805107 5.41052745 2.22280479 7.8125 5.3125 C8.43769531 6.09238281 9.06289062 6.87226563 9.70703125 7.67578125 C11 10 11 10 10.69921875 12.29296875 C10.46847656 12.85628906 10.23773437 13.41960937 10 14 C6.67002318 12.56759312 4.6007104 10.81763476 2.1875 8.125 C1.56230469 7.44695312 0.93710938 6.76890625 0.29296875 6.0703125 C-1 4 -1 4 -0.69921875 1.7421875 C-0.46847656 1.16726563 -0.23773437 0.59234375 0 0 Z " fill="#D2D6E8" transform="translate(1062,455)"/>
<path d="M0 0 C4.1724106 0.51881113 6.25416821 1.71151274 9.3125 4.5625 C10.00988281 5.20316406 10.70726562 5.84382813 11.42578125 6.50390625 C11.94527344 6.99761719 12.46476563 7.49132812 13 8 C12.67 9.32 12.34 10.64 12 12 C7.25188023 11.11955395 4.20086282 8.5209491 1 5 C0.0625 2.125 0.0625 2.125 0 0 Z " fill="#D3D7EB" transform="translate(147,371)"/>
<path d="M0 0 C1.32 0 2.64 0 4 0 C4 4.95 4 9.9 4 15 C2.35 14.67 0.7 14.34 -1 14 C-1.02694851 12.04174127 -1.04637218 10.08337774 -1.0625 8.125 C-1.07410156 7.03445313 -1.08570313 5.94390625 -1.09765625 4.8203125 C-1 2 -1 2 0 0 Z " fill="#CFD4E9" transform="translate(136,328)"/>
<path d="M0 0 C1.65 0.33 3.3 0.66 5 1 C3.40956621 6.08938811 0.2553049 9.87456643 -3 14 C-3.99 13.67 -4.98 13.34 -6 13 C-5.51675181 7.84535266 -2.81389239 4.18449681 0 0 Z " fill="#D0D4EB" transform="translate(1059,562)"/>
<path d="M0 0 C1.32 0 2.64 0 4 0 C3.5547115 5.27315333 2.91626837 10.01770224 1 15 C-0.32 15 -1.64 15 -3 15 C-2.22095672 4.44191344 -2.22095672 4.44191344 0 0 Z " fill="#D3D6EA" transform="translate(1077,520)"/>
<path d="M0 0 C1.890625 0.234375 1.890625 0.234375 4 1 C6.32767422 5.20371015 7.46328919 10.21267836 7 15 C5.68 15 4.36 15 3 15 C2.29911844 13.25531628 1.61475991 11.50398839 0.9375 9.75 C0.55464844 8.77546875 0.17179687 7.8009375 -0.22265625 6.796875 C-1.01113787 3.95992605 -1.02437812 2.70590448 0 0 Z " fill="#D1D5EA" transform="translate(1075,474)"/>
<path d="M0 0 C5.53657294 -0.42589023 9.89665983 1.094753 15 3 C14.67 4.32 14.34 5.64 14 7 C9.71 6.34 5.42 5.68 1 5 C0.67 3.35 0.34 1.7 0 0 Z " fill="#D0D5E9" transform="translate(161,762)"/>
<path d="M0 0 C0.99 0.33 1.98 0.66 3 1 C2.855625 2.07378906 2.71125 3.14757812 2.5625 4.25390625 C2.37476571 5.69007356 2.18727891 7.12627324 2 8.5625 C1.90460938 9.26697266 1.80921875 9.97144531 1.7109375 10.69726562 C0.61344369 18.55572621 0.61344369 18.55572621 1.6875 26.3125 C3.45498541 28.58498124 5.29798569 29.14673232 8 30 C5 31 5 31 2.4375 29.75 C0 28 0 28 -2 25 C-3.00116337 16.68151022 -1.33930679 8.19129602 0 0 Z " fill="#BA9EA1" transform="translate(303,647)"/>
<path d="M0 0 C1.32 0.33 2.64 0.66 4 1 C3.68872484 2.58357459 3.37592711 4.16684993 3.0625 5.75 C2.88847656 6.63171875 2.71445313 7.5134375 2.53515625 8.421875 C2.07631512 10.63235053 1.56663926 12.81512068 1 15 C-0.65 15 -2.3 15 -4 15 C-3.71617054 13.24871182 -3.42260471 11.49899997 -3.125 9.75 C-2.96257812 8.77546875 -2.80015625 7.8009375 -2.6328125 6.796875 C-2.05144152 4.22735883 -1.29159735 2.27928944 0 0 Z " fill="#D1D4E9" transform="translate(75,650)"/>
<path d="M0 0 C1.32 0.33 2.64 0.66 4 1 C3.32116957 4.11547441 2.25893098 6.85137721 0.9375 9.75 C0.39416016 10.94882812 0.39416016 10.94882812 -0.16015625 12.171875 C-0.43730469 12.77515625 -0.71445313 13.3784375 -1 14 C-2.65 13.67 -4.3 13.34 -6 13 C-5.51675181 7.84535266 -2.81389239 4.18449681 0 0 Z " fill="#D1D5E9" transform="translate(85,630)"/>
<path d="M0 0 C0.55171875 0.22171875 1.1034375 0.4434375 1.671875 0.671875 C1.3222435 3.43929719 0.97585727 4.43201881 -1.25390625 6.19140625 C-2.43533203 6.83142578 -2.43533203 6.83142578 -3.640625 7.484375 C-4.42050781 7.92394531 -5.20039062 8.36351562 -6.00390625 8.81640625 C-8.62326848 9.78050764 -9.75450976 9.6318276 -12.328125 8.671875 C-12.328125 7.681875 -12.328125 6.691875 -12.328125 5.671875 C-10.28125 4.03125 -10.28125 4.03125 -7.578125 2.421875 C-6.69640625 1.88046875 -5.8146875 1.3390625 -4.90625 0.78125 C-2.328125 -0.328125 -2.328125 -0.328125 0 0 Z " fill="#CFD3EB" transform="translate(996.328125,625.328125)"/>
<path d="M0 0 C1.33804688 0.04060547 1.33804688 0.04060547 2.703125 0.08203125 C3.37859375 0.11683594 4.0540625 0.15164063 4.75 0.1875 C4.42 0.8475 4.09 1.5075 3.75 2.1875 C2.698125 2.084375 1.64625 1.98125 0.5625 1.875 C-3.37791581 1.83223155 -3.37791581 1.83223155 -6.125 4.5625 C-9.18686697 8.34480626 -9.71844781 10.31564277 -9.25 15.1875 C-7.4844231 18.2478333 -5.74412245 20.69337755 -3.25 23.1875 C-6.9273705 22.98320164 -8.05084985 22.40817989 -10.5625 19.625 C-12.72866524 15.21244118 -12.79158884 13.06179954 -12.25 8.1875 C-9.67803989 2.40058976 -6.36594758 -0.2512874 0 0 Z " fill="#1D2F6E" transform="translate(901.25,767.8125)"/>
<path d="M0 0 C4.96916636 0.51405169 9.29026351 1.23384882 14 3 C14 4.65 14 6.3 14 8 C8.72250715 7.46148032 4.74354436 6.22656164 0 4 C0 2.68 0 1.36 0 0 Z " fill="#D2D6E9" transform="translate(139,756)"/>
<path d="M0 0 C1.91796875 0.1015625 1.91796875 0.1015625 4 1 C5.30078125 3.3984375 5.30078125 3.3984375 6.3125 6.375 C6.65925781 7.35210938 7.00601563 8.32921875 7.36328125 9.3359375 C8 12 8 12 7 15 C6.01 15 5.02 15 4 15 C1.49035811 10.40093532 -0.61033325 6.3254456 -1 1 C-0.67 0.67 -0.34 0.34 0 0 Z " fill="#D0D4EA" transform="translate(74,695)"/>
<path d="M0 0 C0 0.99 0 1.98 0 3 C-1.74692795 3.67467562 -3.49768525 4.33944156 -5.25 5 C-6.71179688 5.556875 -6.71179688 5.556875 -8.203125 6.125 C-11 7 -11 7 -15 7 C-14.8125 5.1875 -14.8125 5.1875 -14 3 C-9.16346145 -0.52936597 -5.77948472 -1.44487118 0 0 Z " fill="#D2D4EA" transform="translate(169,296)"/>
<path d="M0 0 C0.33 0 0.66 0 1 0 C0.03644647 13.6332574 0.03644647 13.6332574 -1 20 C-3.475 19.01 -3.475 19.01 -6 18 C-5.67 14.7 -5.34 11.4 -5 8 C-4.01 7.67 -3.02 7.34 -2 7 C-0.77030122 3.48809191 -0.77030122 3.48809191 0 0 Z " fill="#DED8D1" transform="translate(328,646)"/>
<path d="M0 0 C0.99 0 1.98 0 3 0 C2.57202798 5.70629354 0.15654048 9.41078616 -3 14 C-4.32 13.67 -5.64 13.34 -7 13 C-6.67347493 7.77559896 -3.6106655 3.61964725 0 0 Z " fill="#D0D3EA" transform="translate(146,307)"/>
<path d="M0 0 C4.37191458 1.45730486 8.78027302 3.64109173 12 7 C12 8.32 12 9.64 12 11 C6.55791766 10.65986985 3.06331802 7.29703472 -1 4 C-0.67 2.68 -0.34 1.36 0 0 Z " fill="#D0D4E8" transform="translate(100,733)"/>
<path d="M0 0 C0.99 0.33 1.98 0.66 3 1 C2.61791476 3.62327183 2.19575173 4.80469622 0.29296875 6.703125 C-0.40183594 7.21359375 -1.09664062 7.7240625 -1.8125 8.25 C-2.49957031 8.77078125 -3.18664062 9.2915625 -3.89453125 9.828125 C-6 11 -6 11 -10 11 C-10 9.68 -10 8.36 -10 7 C-7.91796875 5.04296875 -7.91796875 5.04296875 -5.1875 3.1875 C-4.29417969 2.56230469 -3.40085937 1.93710937 -2.48046875 1.29296875 C-1.66191406 0.86628906 -0.84335937 0.43960938 0 0 Z " fill="#D0D3EA" transform="translate(1014,612)"/>
<path d="M0 0 C3.7602985 0.58107632 6.53035032 1.65199496 9.8125 3.5625 C10.60269531 4.01753906 11.39289063 4.47257813 12.20703125 4.94140625 C12.79871094 5.29074219 13.39039063 5.64007812 14 6 C13.67 7.32 13.34 8.64 13 10 C8.1725201 8.58707905 4.2837641 6.57025846 0 4 C0 2.68 0 1.36 0 0 Z " fill="#D0D4E8" transform="translate(118,746)"/>
<path d="M0 0 C1.32 0 2.64 0 4 0 C3.46515599 5.34844008 1.53309233 9.35796103 -1 14 C-2.32 14 -3.64 14 -5 14 C-4.46515599 8.65155992 -2.53309233 4.64203897 0 0 Z " fill="#D0D3EA" transform="translate(1070,542)"/>
<path d="M0 0 C1.32 0 2.64 0 4 0 C4.67528223 1.57967807 5.33989694 3.16391903 6 4.75 C6.37125 5.63171875 6.7425 6.5134375 7.125 7.421875 C8 10 8 10 8 14 C6.68 14 5.36 14 4 14 C-0.59225513 4.58997722 -0.59225513 4.58997722 0 0 Z " fill="#CFD3EA" transform="translate(137,351)"/>
<path d="M0 0 C1.32 1.32 2.64 2.64 4 4 C3 5 3 5 0.75376892 5.12025452 C-0.23884445 5.11803391 -1.23145782 5.11581329 -2.25415039 5.11352539 C-3.37523697 5.11344986 -4.49632355 5.11337433 -5.65138245 5.11329651 C-7.48103798 5.10555458 -7.48103798 5.10555458 -9.34765625 5.09765625 C-10.58921982 5.0962413 -11.83078339 5.09482635 -13.10997009 5.09336853 C-16.41605491 5.08870591 -19.72207146 5.07971497 -23.02813721 5.06866455 C-26.3996115 5.05844827 -29.77109283 5.05387045 -33.14257812 5.04882812 C-39.76173775 5.03777395 -46.38086493 5.02101736 -53 5 C-53 4.67 -53 4.34 -53 4 C-35.51 3.67 -18.02 3.34 0 3 C0 2.01 0 1.02 0 0 Z " fill="#E6E8F5" transform="translate(524,813)"/>
<path d="M0 0 C0 1.32 0 2.64 0 4 C-0.66 4 -1.32 4 -2 4 C-2.33 4.99 -2.66 5.98 -3 7 C-6.3225289 10.14293274 -7.29735282 11 -12 11 C-11.91689058 8.1742798 -11.40452306 6.45455618 -9.515625 4.33203125 C-4.69997031 0 -4.69997031 0 0 0 Z " fill="#CCD1E9" transform="translate(1034,598)"/>
<path d="M0 0 C1.32 0.33 2.64 0.66 4 1 C2.65864082 3.88711594 1.15056005 6.29413963 -0.875 8.75 C-1.36742187 9.36359375 -1.85984375 9.9771875 -2.3671875 10.609375 C-4 12 -4 12 -8 12 C-7.41463247 8.33939179 -5.916761 6.45464836 -3.4375 3.75 C-2.79683594 3.04359375 -2.15617187 2.3371875 -1.49609375 1.609375 C-0.75552734 0.81273437 -0.75552734 0.81273437 0 0 Z " fill="#CED3E9" transform="translate(1046,581)"/>
<path d="M0 0 C-0.25 2.375 -0.25 2.375 -1 5 C-3.0625 6.3125 -3.0625 6.3125 -5 7 C-4.67 5.68 -4.34 4.36 -4 3 C-4.99 3.66 -5.98 4.32 -7 5 C-7.2502157 8.08365871 -7.2502157 8.08365871 -7 11 C-9.475 10.01 -9.475 10.01 -12 9 C-11.52723148 4.74508335 -9.07452523 2.77457155 -6 0 C-3.50907189 -1.24546405 -2.58919267 -0.7767578 0 0 Z " fill="#191E3D" transform="translate(464,709)"/>
<path d="M0 0 C1.34846932 4.04540795 0.21885848 5.84911463 -1.25 9.8125 C-1.68828125 11.01519531 -2.1265625 12.21789062 -2.578125 13.45703125 C-3.8961562 16.74124636 -5.36652713 19.86277122 -7 23 C-8.32 22.67 -9.64 22.34 -11 22 C-10.67 20.68 -10.34 19.36 -10 18 C-9.34 18 -8.68 18 -8 18 C-7.79503906 17.37351562 -7.59007812 16.74703125 -7.37890625 16.1015625 C-7.10949219 15.28429687 -6.84007812 14.46703125 -6.5625 13.625 C-6.29566406 12.81289063 -6.02882813 12.00078125 -5.75390625 11.1640625 C-5 9 -5 9 -4 7 C-3.34 7 -2.68 7 -2 7 C-2.04125 6.21625 -2.0825 5.4325 -2.125 4.625 C-2 2 -2 2 0 0 Z " fill="#243897" transform="translate(474,682)"/>
<path d="M0 0 C4.95 0 9.9 0 15 0 C15.33 1.32 15.66 2.64 16 4 C10.72 4 5.44 4 0 4 C0 2.68 0 1.36 0 0 Z " fill="#CDD1ED" transform="translate(176,294)"/>
<path d="M0 0 C0 3 0 3 -1.609375 4.75390625 C-2.31578125 5.35074219 -3.0221875 5.94757812 -3.75 6.5625 C-4.44609375 7.16191406 -5.1421875 7.76132812 -5.859375 8.37890625 C-8 10 -8 10 -10.21875 11.08203125 C-12.22269739 11.85711188 -12.22269739 11.85711188 -12.75 14.125 C-12.8325 14.74375 -12.915 15.3625 -13 16 C-13.99 16 -14.98 16 -16 16 C-13.9092924 9.90210284 -7.32893173 0 0 0 Z " fill="#1F3BA0" transform="translate(865,747)"/>
<path d="M0 0 C2.9375 1 2.9375 1 5 2 C5 2.99 5 3.98 5 5 C0.38 5 -4.24 5 -9 5 C-9 3.68 -9 2.36 -9 1 C-5.96967558 -0.51516221 -3.34885038 -0.17028053 0 0 Z " fill="#CBD1EF" transform="translate(292,247)"/>
<path d="M0 0 C1.32 0 2.64 0 4 0 C4 4.95 4 9.9 4 15 C2.68 14.67 1.36 14.34 0 14 C0 9.38 0 4.76 0 0 Z " fill="#CED1E9" transform="translate(70,673)"/>
<path d="M0 0 C0.99 0 1.98 0 3 0 C3 4.95 3 9.9 3 15 C1.68 15 0.36 15 -1 15 C-1.02685412 12.68756208 -1.04632841 10.3750373 -1.0625 8.0625 C-1.07410156 6.77472656 -1.08570313 5.48695313 -1.09765625 4.16015625 C-1 1 -1 1 0 0 Z " fill="#CFD3E9" transform="translate(1080,497)"/>
<path d="M0 0 C1.32 0.33 2.64 0.66 4 1 C5.125 4.75 5.125 4.75 4 7 C-2.11229135 10.1138088 -2.11229135 10.1138088 -5.4375 9.6875 C-5.953125 9.460625 -6.46875 9.23375 -7 9 C-7 8.01 -7 7.02 -7 6 C-5.02 6 -3.04 6 -1 6 C-0.67 4.02 -0.34 2.04 0 0 Z " fill="#2A324F" transform="translate(546,813)"/>
<path d="M0 0 C3 1 3 1 4 3 C4.66 3 5.32 3 6 3 C5.67 4.32 5.34 5.64 5 7 C6.65 7 8.3 7 10 7 C8.6875 9 8.6875 9 7 11 C4 11 4 11 1.375 8.75 C-1.8979206 4.96030246 -1.8979206 4.96030246 -2 2 C-1.34 1.34 -0.68 0.68 0 0 Z " fill="#181E38" transform="translate(447,718)"/>
<path d="M0 0 C0 3 0 3 -1 5 C0.32 5 1.64 5 3 5 C3 5.66 3 6.32 3 7 C3.99 7 4.98 7 6 7 C6 8.65 6 10.3 6 12 C4.02 12.99 4.02 12.99 2 14 C1.87625 13.13375 1.87625 13.13375 1.75 12.25 C0.7973369 9.39201069 -0.86053074 8.07045412 -3 6 C-3 5.34 -3 4.68 -3 4 C-4.32 3.67 -5.64 3.34 -7 3 C-4.69 2.01 -2.38 1.02 0 0 Z " fill="#41425A" transform="translate(559,789)"/>
<path d="M0 0 C1.65 0 3.3 0 5 0 C4.01 0.495 4.01 0.495 3 1 C1.62096564 3.95834343 0.63987235 7.04766542 -0.40234375 10.13671875 C-0.65306641 10.87857422 -0.90378906 11.62042969 -1.16210938 12.38476562 C-1.68218823 13.92928193 -2.1951344 15.47621707 -2.70117188 17.02539062 C-3.07918945 18.13237305 -3.07918945 18.13237305 -3.46484375 19.26171875 C-3.79923462 20.26658325 -3.79923462 20.26658325 -4.14038086 21.29174805 C-5 23 -5 23 -8 25 C-5.56541729 16.58782396 -2.79856214 8.29613284 0 0 Z " fill="#273589" transform="translate(410,649)"/>
<path d="M0 0 C4.65206248 1.32916071 8.10374238 3.13744338 12 6 C12.95712891 6.70189453 12.95712891 6.70189453 13.93359375 7.41796875 C18.89348714 11.30005834 18.89348714 11.30005834 19.4375 14.875 C19.293125 15.57625 19.14875 16.2775 19 17 C17 16 17 16 15.67578125 13.66796875 C11.95818695 7.74928132 4.72329129 3.59235846 -2 2 C-1.34 1.34 -0.68 0.68 0 0 Z " fill="#1D2E7C" transform="translate(899,744)"/>
<path d="M0 0 C3.25696479 0.41755959 4.63443291 0.63443291 7 3 C7 3.99 7 4.98 7 6 C6.01 6 5.02 6 4 6 C3.34 7.65 2.68 9.3 2 11 C-1.03333922 7.96666078 -0.6646334 5.2256192 -1 1 C-0.67 0.67 -0.34 0.34 0 0 Z " fill="#C88B63" transform="translate(352,555)"/>
<path d="M0 0 C1.22589844 0.15275391 1.22589844 0.15275391 2.4765625 0.30859375 C3.41628906 0.43427734 3.41628906 0.43427734 4.375 0.5625 C2.5 4.4375 2.5 4.4375 1.375 5.5625 C-1.31582872 5.38614548 -3.95351446 4.94414079 -6.625 4.5625 C-6.625 3.2425 -6.625 1.9225 -6.625 0.5625 C-4.10446405 -0.69776798 -2.7707902 -0.35624445 0 0 Z " fill="#050C2B" transform="translate(554.625,819.4375)"/>
<path d="M0 0 C0.33 0 0.66 0 1 0 C1.14865468 6.8381152 -2.25586627 10.09020109 -6.7734375 14.9609375 C-9 17 -9 17 -12 18 C-12 17.01 -12 16.02 -12 15 C-11.01 15 -10.02 15 -9 15 C-8.6596875 13.948125 -8.6596875 13.948125 -8.3125 12.875 C-6.71856242 9.38351769 -4.48017222 6.91420235 -2 4 C-0.72147713 1.78412652 -0.72147713 1.78412652 0 0 Z " fill="#243480" transform="translate(921,798)"/>
<path d="M0 0 C-0.33 1.32 -0.66 2.64 -1 4 C-1.66 3.67 -2.32 3.34 -3 3 C-3.66 4.98 -4.32 6.96 -5 9 C-5.66 7.68 -6.32 6.36 -7 5 C-6.34 4.67 -5.68 4.34 -5 4 C-5 3.01 -5 2.02 -5 1 C-8.11332248 1.66868314 -8.11332248 1.66868314 -9.1875 4.0625 C-9.455625 4.701875 -9.72375 5.34125 -10 6 C-10.99 6 -11.98 6 -13 6 C-12.69542509 3.05577584 -12.16507321 2.14079774 -9.875 0.1875 C-6.20560221 -1.32812083 -3.82518454 -0.8250398 0 0 Z " fill="#21253E" transform="translate(574,783)"/>
<path d="M0 0 C0 4.62 0 9.24 0 14 C-0.99 13.34 -1.98 12.68 -3 12 C-3 11.34 -3 10.68 -3 10 C-3.66 10 -4.32 10 -5 10 C-4.51171875 3.9453125 -4.51171875 3.9453125 -4 2 C-1 0 -1 0 0 0 Z " fill="#90A3D8" transform="translate(318,684)"/>
<path d="M0 0 C0 3 0 3 -1.0625 5.5625 C-2.3337484 10.22374412 -1.69163609 14.27070457 -1 19 C-1.99 19 -2.98 19 -4 19 C-5.97922132 15.04155735 -5.56884049 10.30261264 -5 6 C-3.59657128 3.41396177 -2.19164373 2.02727045 0 0 Z " fill="#1E3B9E" transform="translate(729,790)"/>
<path d="M0 0 C-1.28207359 2.86001033 -2.49151236 5.07039412 -5 7 C-6.32 7 -7.64 7 -9 7 C-9 5.02 -9 3.04 -9 1 C-2.25 -1.125 -2.25 -1.125 0 0 Z " fill="#101937" transform="translate(536,816)"/>
<path d="M0 0 C1.32 0 2.64 0 4 0 C3.67 1.32 3.34 2.64 3 4 C4.65 3.67 6.3 3.34 8 3 C7.25 4.9375 7.25 4.9375 6 7 C3.875 7.75 3.875 7.75 2 8 C0.68 6.35 -0.64 4.7 -2 3 C-1.34 2.01 -0.68 1.02 0 0 Z " fill="#171C37" transform="translate(443,727)"/>
<path d="M0 0 C2.97 0 5.94 0 9 0 C9.66 1.98 10.32 3.96 11 6 C12.65 6.33 14.3 6.66 16 7 C15.67 7.66 15.34 8.32 15 9 C13.02 9 11.04 9 9 9 C8.34 7.02 7.68 5.04 7 3 C4.69 2.67 2.38 2.34 0 2 C0 1.34 0 0.68 0 0 Z " fill="#2942A1" transform="translate(735,786)"/>
<path d="M0 0 C0.66 0.33 1.32 0.66 2 1 C1.67 1.33 1.34 1.66 1 2 C10.9 2.33 20.8 2.66 31 3 C31 3.33 31 3.66 31 4 C19.78 4 8.56 4 -3 4 C-2.67 3.01 -2.34 2.02 -2 1 C-1.34 0.67 -0.68 0.34 0 0 Z " fill="#DFDFE4" transform="translate(907,817)"/>
<path d="M0 0 C0.9796875 0.0515625 1.959375 0.103125 2.96875 0.15625 C4.49242187 0.25292969 4.49242187 0.25292969 6.046875 0.3515625 C7.59375 0.43664062 7.59375 0.43664062 9.171875 0.5234375 C11.71426705 0.6646815 14.25563738 0.81606996 16.796875 0.9765625 C16.796875 1.3065625 16.796875 1.6365625 16.796875 1.9765625 C16.12108398 1.99114502 15.44529297 2.00572754 14.74902344 2.02075195 C11.68106978 2.09531661 8.61419424 2.19194905 5.546875 2.2890625 C3.95166016 2.32290039 3.95166016 2.32290039 2.32421875 2.35742188 C0.78701172 2.4105957 0.78701172 2.4105957 -0.78125 2.46484375 C-1.72387695 2.49102783 -2.66650391 2.51721191 -3.63769531 2.54418945 C-6.58903111 3.04160244 -7.90523306 4.12921929 -10.203125 5.9765625 C-12.453125 5.6640625 -12.453125 5.6640625 -14.203125 4.9765625 C-12.54464323 3.96304586 -10.87646539 2.96535455 -9.203125 1.9765625 C-8.5937207 1.61256348 -7.98431641 1.24856445 -7.35644531 0.87353516 C-4.70980995 -0.22892951 -2.85511434 -0.16599502 0 0 Z " fill="#D2D4E4" transform="translate(452.203125,817.0234375)"/>
<path d="M0 0 C2.0625 0.4375 2.0625 0.4375 4 1 C0.2440786 4.42931954 -4.23466745 5.56429083 -9 7 C-9 6.34 -9 5.68 -9 5 C-9.99 4.67 -10.98 4.34 -12 4 C-11.21753906 3.79503906 -10.43507813 3.59007812 -9.62890625 3.37890625 C-8.61699219 3.10949219 -7.60507812 2.84007812 -6.5625 2.5625 C-5.55316406 2.29566406 -4.54382813 2.02882813 -3.50390625 1.75390625 C-1.08247999 1.24021923 -1.08247999 1.24021923 0 0 Z " fill="#1E389F" transform="translate(905,815)"/>
<path d="M0 0 C0.33 0.99 0.66 1.98 1 3 C3.50447516 4.21869929 3.50447516 4.21869929 6 5 C3.98189163 6.08112948 2.260992 6.951064 0 7.375 C-2.74418595 8.23255811 -4.1019818 9.89862271 -6 12 C-6.33 11.01 -6.66 10.02 -7 9 C-6.57847656 8.60167969 -6.15695312 8.20335937 -5.72265625 7.79296875 C-5.17480469 7.26316406 -4.62695312 6.73335937 -4.0625 6.1875 C-3.51722656 5.66542969 -2.97195313 5.14335938 -2.41015625 4.60546875 C-0.76480908 2.94187802 -0.76480908 2.94187802 0 0 Z " fill="#D1936B" transform="translate(542,787)"/>
<path d="M0 0 C0 0.33 0 0.66 0 1 C-1.98 1.33 -3.96 1.66 -6 2 C-5.67 2.66 -5.34 3.32 -5 4 C-8.96 3.67 -12.92 3.34 -17 3 C-17 2.34 -17 1.68 -17 1 C-11.29309366 0.00749455 -5.78591511 -0.10477512 0 0 Z " fill="#D4D6D8" transform="translate(112,824)"/>
<path d="M0 0 C2.31 0 4.62 0 7 0 C6 2 6 2 4.1875 2.8125 C1.75714254 3.91382282 1.75714254 3.91382282 0.1875 6.6875 C-0.8953125 7.8321875 -0.8953125 7.8321875 -2 9 C-5.75 8.8125 -5.75 8.8125 -9 8 C-9 7.67 -9 7.34 -9 7 C-6.36 6.34 -3.72 5.68 -1 5 C-0.67 3.35 -0.34 1.7 0 0 Z " fill="#243C9A" transform="translate(772,781)"/>
<path d="M0 0 C5 1 5 1 7 3 C6.01 3 5.02 3 4 3 C3.71125 4.134375 3.4225 5.26875 3.125 6.4375 C2.75375 7.613125 2.3825 8.78875 2 10 C1.01 10.495 1.01 10.495 0 11 C0 7.37 0 3.74 0 0 Z " fill="#DBDBDE" transform="translate(319,683)"/>
<path d="M0 0 C-0.7425 0.680625 -0.7425 0.680625 -1.5 1.375 C-3.22609337 2.87635519 -3.22609337 2.87635519 -3 5 C-2.05125 5.28875 -1.1025 5.5775 -0.125 5.875 C3 7 3 7 5 9 C1.62294375 8.46274105 -1.696686 7.88935377 -5 7 C-5.33 4.69 -5.66 2.38 -6 0 C-2.25 -1.125 -2.25 -1.125 0 0 Z " fill="#C5C8DA" transform="translate(381,584)"/>
<path d="M0 0 C0 0.33 0 0.66 0 1 C-6.435 1.495 -6.435 1.495 -13 2 C-13 1.67 -13 1.34 -13 1 C-14.65 0.67 -16.3 0.34 -18 0 C-18 -0.33 -18 -0.66 -18 -1 C-11.45688671 -1.87557031 -6.23352019 -2.3548854 0 0 Z " fill="#334CAE" transform="translate(773,813)"/>
<path d="M0 0 C0.98484375 0.10183594 1.9696875 0.20367188 2.984375 0.30859375 C4.10585938 0.43427734 4.10585938 0.43427734 5.25 0.5625 C5.25 0.8925 5.25 1.2225 5.25 1.5625 C-0.36 2.2225 -5.97 2.8825 -11.75 3.5625 C-9.75 0.5625 -9.75 0.5625 -7.984375 -0.15234375 C-5.23257009 -0.50353564 -2.7568958 -0.29538169 0 0 Z " fill="#3D55AE" transform="translate(817.75,805.4375)"/>
<path d="M0 0 C2.31 0.33 4.62 0.66 7 1 C7 3.31 7 5.62 7 8 C1.125 3.375 1.125 3.375 0 0 Z " fill="#242E4B" transform="translate(528,823)"/>
<path d="M0 0 C2.31 0 4.62 0 7 0 C7.103125 0.61875 7.20625 1.2375 7.3125 1.875 C7.87525373 4.36526484 7.87525373 4.36526484 11 6 C8.625 6.1875 8.625 6.1875 6 6 C5.34 5.01 4.68 4.02 4 3 C3.01 2.67 2.02 2.34 1 2 C1 3.98 1 5.96 1 8 C0.67 8 0.34 8 0 8 C0 5.36 0 2.72 0 0 Z " fill="#122D8F" transform="translate(755,784)"/>
<path d="M0 0 C0.66 0.33 1.32 0.66 2 1 C-3.0940919 8.68490153 -3.0940919 8.68490153 -6.875 10 C-7.57625 10 -8.2775 10 -9 10 C-8.06409496 8.8944811 -7.12620142 7.79064547 -6.1875 6.6875 C-5.66542969 6.07261719 -5.14335938 5.45773437 -4.60546875 4.82421875 C-3.12827531 3.14575321 -1.59960869 1.56117966 0 0 Z " fill="#BE8668" transform="translate(531,797)"/>
<path d="M0 0 C0.33 0 0.66 0 1 0 C1 3.3 1 6.6 1 10 C2.32 10.66 3.64 11.32 5 12 C5 12.66 5 13.32 5 14 C7.475 14.99 7.475 14.99 10 16 C7 17 7 17 4.4375 15.75 C2 14 2 14 0 11 C-0.1953125 8.30078125 -0.1953125 8.30078125 -0.125 5.3125 C-0.10695313 4.31863281 -0.08890625 3.32476563 -0.0703125 2.30078125 C-0.04710937 1.54152344 -0.02390625 0.78226563 0 0 Z " fill="#ABA0B9" transform="translate(301,661)"/>
<path d="M0 0 C0.66 0.33 1.32 0.66 2 1 C1.34 2.32 0.68 3.64 0 5 C-5.625 5.25 -5.625 5.25 -9 3 C-9 4.98 -9 6.96 -9 9 C-9.33 9 -9.66 9 -10 9 C-10 6.69 -10 4.38 -10 2 C-8.3603125 2.061875 -8.3603125 2.061875 -6.6875 2.125 C-2.91107771 2.32074666 -2.91107771 2.32074666 0 0 Z " fill="#111A3E" transform="translate(546,820)"/>
<path d="M0 0 C0.66 0 1.32 0 2 0 C1.125 6.75 1.125 6.75 0 9 C-1.32 8.67 -2.64 8.34 -4 8 C-3.67 6.68 -3.34 5.36 -3 4 C-2.34 4 -1.68 4 -1 4 C-0.67 2.68 -0.34 1.36 0 0 Z " fill="#213BA7" transform="translate(467,696)"/>
<path d="M0 0 C0.33 0 0.66 0 1 0 C1.12375 1.093125 1.2475 2.18625 1.375 3.3125 C1.75464801 7.07381802 1.75464801 7.07381802 4 10 C4.66 9.34 5.32 8.68 6 8 C5.67 9.65 5.34 11.3 5 13 C3.68 13 2.36 13 1 13 C0 12 0 12 -0.09765625 9.27734375 C-0.08605469 8.17519531 -0.07445312 7.07304688 -0.0625 5.9375 C-0.05347656 4.83277344 -0.04445313 3.72804688 -0.03515625 2.58984375 C-0.02355469 1.73519531 -0.01195312 0.88054688 0 0 Z " fill="#CF9D77" transform="translate(399,650)"/>
<path d="M0 0 C0.99 0.33 1.98 0.66 3 1 C0.03 3.97 -2.94 6.94 -6 10 C-6.33 8.68 -6.66 7.36 -7 6 C-6.01 6 -5.02 6 -4 6 C-3.896875 5.38125 -3.79375 4.7625 -3.6875 4.125 C-3 2 -3 2 0 0 Z " fill="#1A162F" transform="translate(527,798)"/>
<path d="M0 0 C0 0.66 0 1.32 0 2 C-2.13770618 3.62677091 -4.2675534 5.13979644 -6.5 6.625 C-7.43005859 7.25535156 -7.43005859 7.25535156 -8.37890625 7.8984375 C-9.91517264 8.93837167 -11.45707524 9.96997056 -13 11 C-13.66 10.67 -14.32 10.34 -15 10 C-13.54634731 8.82750647 -12.08692581 7.66216184 -10.625 6.5 C-9.40683594 5.52546875 -9.40683594 5.52546875 -8.1640625 4.53125 C-6 3 -6 3 -4 3 C-4 2.34 -4 1.68 -4 1 C-2 0 -2 0 0 0 Z " fill="#BCC7EE" transform="translate(275,598)"/>
<path d="M0 0 C1.8871875 0.061875 1.8871875 0.061875 3.8125 0.125 C4.1425 1.115 4.4725 2.105 4.8125 3.125 C0.1925 3.455 -4.4275 3.785 -9.1875 4.125 C-6.15459168 1.09209168 -4.23752936 -0.13893539 0 0 Z " fill="#E7E8F5" transform="translate(133.1875,495.875)"/>
<path d="M0 0 C6.05537521 0.30276876 9.51483458 3.27754038 14 7 C10.27792613 7 8.53604411 5.82035432 5.3125 4 C4.31863281 3.443125 3.32476562 2.88625 2.30078125 2.3125 C1.54152344 1.879375 0.78226562 1.44625 0 1 C0 0.67 0 0.34 0 0 Z " fill="#C89C84" transform="translate(306,674)"/>
<path d="M0 0 C0.99 0 1.98 0 3 0 C1.58192622 4.47238653 -0.11304374 8.71146306 -2 13 C-3.18771723 9.57056481 -2.80226223 7.62215325 -1.5625 4.25 C-1.27503906 3.45078125 -0.98757813 2.6515625 -0.69140625 1.828125 C-0.46324219 1.22484375 -0.23507812 0.6215625 0 0 Z " fill="#2A44A0" transform="translate(480,664)"/>
<path d="M0 0 C0.99 0 1.98 0 3 0 C1.33248852 3.94139078 -1.22710649 6.7892812 -4 10 C-4.66 9.67 -5.32 9.34 -6 9 C-6 6 -6 6 -3.5625 3.375 C-2.716875 2.59125 -1.87125 1.8075 -1 1 C-0.67 0.67 -0.34 0.34 0 0 Z " fill="#C39379" transform="translate(352,580)"/>
<path d="M0 0 C0 0.99 0 1.98 0 3 C-1.1446875 2.938125 -1.1446875 2.938125 -2.3125 2.875 C-5.22718416 2.77919176 -5.22718416 2.77919176 -8 5 C-8.99 4.67 -9.98 4.34 -11 4 C-7.65667474 -0.27945633 -5.29105716 -0.4070044 0 0 Z " fill="#BD8867" transform="translate(380,548)"/>
<path d="M0 0 C0.33 1.32 0.66 2.64 1 4 C1.99 3.67 2.98 3.34 4 3 C4 3.66 4 4.32 4 5 C3.01 5 2.02 5 1 5 C1 5.99 1 6.98 1 8 C-0.65 7.67 -2.3 7.34 -4 7 C-3.67 6.01 -3.34 5.02 -3 4 C-2.34 3.67 -1.68 3.34 -1 3 C-0.67 2.01 -0.34 1.02 0 0 Z " fill="#30304A" transform="translate(560,799)"/>
<path d="M0 0 C2.63978826 3.18595135 5.10498388 6.30970546 7 10 C6.67 10.66 6.34 11.32 6 12 C5.01 11.34 4.02 10.68 3 10 C3 9.01 3 8.02 3 7 C2.34 7 1.68 7 1 7 C0.67 4.69 0.34 2.38 0 0 Z " fill="#2E3D77" transform="translate(918,757)"/>
<path d="M0 0 C0.66 0.99 1.32 1.98 2 3 C1.5390625 5.26171875 1.5390625 5.26171875 0.625 7.6875 C0.18027344 8.89986328 0.18027344 8.89986328 -0.2734375 10.13671875 C-0.51320313 10.75160156 -0.75296875 11.36648438 -1 12 C-1.66 12 -2.32 12 -3 12 C-2.49202991 7.6822542 -1.80317221 3.96697886 0 0 Z " fill="#2640A1" transform="translate(397,686)"/>
<path d="M0 0 C1.65 0 3.3 0 5 0 C4.06725891 1.12894876 3.12859878 2.25300876 2.1875 3.375 C1.66542969 4.00148438 1.14335938 4.62796875 0.60546875 5.2734375 C-1 7 -1 7 -4 9 C-3.67 7.35 -3.34 5.7 -3 4 C-2.01 4 -1.02 4 0 4 C0 2.68 0 1.36 0 0 Z " fill="#21264C" transform="translate(550,825)"/>
<path d="M0 0 C1.32 0.33 2.64 0.66 4 1 C4.33 2.32 4.66 3.64 5 5 C3.35 5.33 1.7 5.66 0 6 C0 4.02 0 2.04 0 0 Z " fill="#3D405A" transform="translate(546,813)"/>
<path d="M0 0 C0.99 0.33 1.98 0.66 3 1 C3 1.66 3 2.32 3 3 C3.928125 3.1546875 3.928125 3.1546875 4.875 3.3125 C7 4 7 4 9 7 C6 7 6 7 4.3125 5.5 C3.879375 5.005 3.44625 4.51 3 4 C2.67 4.99 2.34 5.98 2 7 C2 6.34 2 5.68 2 5 C0.35 5 -1.3 5 -3 5 C-1.68 4.67 -0.36 4.34 1 4 C0.67 2.68 0.34 1.36 0 0 Z " fill="#DBDFF6" transform="translate(296,248)"/>
<path d="M0 0 C0.33 0.66 0.66 1.32 1 2 C1.66 2.33 2.32 2.66 3 3 C2.01 3 1.02 3 0 3 C-0.33 4.32 -0.66 5.64 -1 7 C-1.99 6.67 -2.98 6.34 -4 6 C-4 4.68 -4 3.36 -4 2 C-2.68 1.34 -1.36 0.68 0 0 Z " fill="#1F2240" transform="translate(557,796)"/>
<path d="M0 0 C0.33 0 0.66 0 1 0 C1 2.31 1 4.62 1 7 C-0.79133978 7.05391993 -2.58313899 7.09275571 -4.375 7.125 C-5.37273437 7.14820313 -6.37046875 7.17140625 -7.3984375 7.1953125 C-10 7 -10 7 -12 5 C-8.7 5 -5.4 5 -2 5 C-1.34 3.35 -0.68 1.7 0 0 Z " fill="#CBA289" transform="translate(388,696)"/>
<path d="M0 0 C1.32 0 2.64 0 4 0 C3.50639991 4.27786748 2.95216435 7.09567131 1 11 C0.67 7.37 0.34 3.74 0 0 Z " fill="#BE9985" transform="translate(400,665)"/>
<path d="M0 0 C2.64 0 5.28 0 8 0 C8 0.33 8 0.66 8 1 C10.97 1.495 10.97 1.495 14 2 C14 2.33 14 2.66 14 3 C4.58997722 3.18451025 4.58997722 3.18451025 0 2 C0 1.34 0 0.68 0 0 Z " fill="#D0D5EA" transform="translate(749,816)"/>
<path d="M0 0 C0.33 0 0.66 0 1 0 C1 1.98 1 3.96 1 6 C-0.65 6 -2.3 6 -4 6 C-4 4.68 -4 3.36 -4 2 C-2.68 2 -1.36 2 0 2 C0 1.34 0 0.68 0 0 Z " fill="#C7D1EE" transform="translate(211,766)"/>
<path d="M0 0 C1.32 1.32 2.64 2.64 4 4 C3 5 3 5 -0.16015625 5.09765625 C-2.09181641 5.08025391 -2.09181641 5.08025391 -4.0625 5.0625 C-5.35285156 5.05347656 -6.64320313 5.04445313 -7.97265625 5.03515625 C-8.97167969 5.02355469 -9.97070312 5.01195312 -11 5 C-11 4.67 -11 4.34 -11 4 C-5.555 3.505 -5.555 3.505 0 3 C0 2.01 0 1.02 0 0 Z " fill="#E2E2E9" transform="translate(524,813)"/>
<path d="M0 0 C0.99 0 1.98 0 3 0 C2.625 1.9375 2.625 1.9375 2 4 C1.01 4.495 1.01 4.495 0 5 C-0.33 5.99 -0.66 6.98 -1 8 C-1.66 8 -2.32 8 -3 8 C-3.33 6.35 -3.66 4.7 -4 3 C-3.01 3 -2.02 3 -1 3 C-0.67 2.01 -0.34 1.02 0 0 Z " fill="#101832" transform="translate(557,799)"/>
<path d="M0 0 C0.28875 0.61875 0.5775 1.2375 0.875 1.875 C1.93720042 4.13325765 1.93720042 4.13325765 4 6 C4.125 9.625 4.125 9.625 4 13 C3.34 13 2.68 13 2 13 C2.33 11.02 2.66 9.04 3 7 C2.01 7 1.02 7 0 7 C0 4.69 0 2.38 0 0 Z " fill="#CCA68A" transform="translate(473,687)"/>
<path d="M0 0 C0.99 0.33 1.98 0.66 3 1 C1.38405168 3.04119788 -0.2856382 5.04072937 -2 7 C-2.66 7 -3.32 7 -4 7 C-4.33 7.66 -4.66 8.32 -5 9 C-4.67 7.35 -4.34 5.7 -4 4 C-2.68 3.67 -1.36 3.34 0 3 C0 2.01 0 1.02 0 0 Z " fill="#AAACD1" transform="translate(350,579)"/>
<path d="M0 0 C0.99 0 1.98 0 3 0 C3 0.66 3 1.32 3 2 C3.66 2.33 4.32 2.66 5 3 C2.35261084 4.4606285 1.10551666 5 -2 5 C-1.125 1.125 -1.125 1.125 0 0 Z " fill="#1F2948" transform="translate(537,816)"/>
<path d="M0 0 C0 0.66 0 1.32 0 2 C-2.95664519 3.4783226 -5.74229737 3.06032783 -9 3 C-9.33 2.34 -9.66 1.68 -10 1 C-6.56484998 0.37542727 -3.50935186 0 0 0 Z " fill="#112E9A" transform="translate(799,807)"/>
<path d="M0 0 C0.66 0 1.32 0 2 0 C2.226875 0.639375 2.45375 1.27875 2.6875 1.9375 C3.85250896 4.27193661 3.85250896 4.27193661 6.625 4.75 C7.40875 4.8325 8.1925 4.915 9 5 C9 5.33 9 5.66 9 6 C2.84765625 6.09765625 2.84765625 6.09765625 1 6 C0 5 0 5 -0.0625 2.4375 C-0.041875 1.633125 -0.02125 0.82875 0 0 Z " fill="#10298F" transform="translate(777,784)"/>
<path d="M0 0 C2.31 0 4.62 0 7 0 C5.515 2.475 5.515 2.475 4 5 C2.68 4.34 1.36 3.68 0 3 C0 2.01 0 1.02 0 0 Z " fill="#26429E" transform="translate(359,704)"/>
<path d="M0 0 C-0.99 1.485 -0.99 1.485 -2 3 C-4.31 2.67 -6.62 2.34 -9 2 C-4.13793103 -1.24137931 -4.13793103 -1.24137931 0 0 Z " fill="#C7A791" transform="translate(416,646)"/>
<path d="M0 0 C1 3 1 3 0.07421875 5.0078125 C-0.38339844 5.70648437 -0.84101563 6.40515625 -1.3125 7.125 C-1.76238281 7.82882812 -2.21226562 8.53265625 -2.67578125 9.2578125 C-4 11 -4 11 -6 12 C-4.43358249 7.69235185 -2.31663844 3.93828536 0 0 Z " fill="#BBC6EF" transform="translate(234,638)"/>
<path d="M0 0 C3.03703704 4.55555556 3.03703704 4.55555556 4 7 C3.55078125 9.12890625 3.55078125 9.12890625 3 11 C2.30034557 9.73581754 1.61565237 8.46334598 0.9375 7.1875 C0.55464844 6.47980469 0.17179687 5.77210938 -0.22265625 5.04296875 C-1 3 -1 3 0 0 Z " fill="#342823" transform="translate(351,561)"/>
<path d="M0 0 C0 0.99 0 1.98 0 3 C-1.32 3 -2.64 3 -4 3 C-4 3.66 -4 4.32 -4 5 C-4.99 5.66 -5.98 6.32 -7 7 C-7.99 6.67 -8.98 6.34 -10 6 C-8.71283353 4.99421411 -7.42011342 3.99553202 -6.125 3 C-5.40570312 2.443125 -4.68640625 1.88625 -3.9453125 1.3125 C-2 0 -2 0 0 0 Z " fill="#29429B" transform="translate(865,747)"/>
<path d="M0 0 C3.91211733 1.15585285 6.8745041 2.35534962 10 5 C5.80530429 4.40075776 1.99000166 3.42500059 -2 2 C-1.34 1.34 -0.68 0.68 0 0 Z " fill="#293C8A" transform="translate(899,744)"/>
<path d="M0 0 C0.12375 0.639375 0.2475 1.27875 0.375 1.9375 C0.684375 2.9584375 0.684375 2.9584375 1 4 C1.66 4.33 2.32 4.66 3 5 C-3.15234375 4.4140625 -3.15234375 4.4140625 -5 4 C-5.33 3.34 -5.66 2.68 -6 2 C-4.02 2 -2.04 2 0 2 C0 1.34 0 0.68 0 0 Z " fill="#7D636D" transform="translate(466,705)"/>
<path d="M0 0 C0 0.66 0 1.32 0 2 C-2.63892176 3.78305524 -4.97178863 4.99059621 -8 6 C-8.66 5.34 -9.32 4.68 -10 4 C-8.71086513 3.32845067 -7.41859796 2.66291141 -6.125 2 C-5.40570313 1.62875 -4.68640625 1.2575 -3.9453125 0.875 C-2 0 -2 0 0 0 Z " fill="#BBC6F0" transform="translate(291,589)"/>
<path d="M0 0 C1.32 0 2.64 0 4 0 C4 0.99 4 1.98 4 3 C5.32 3.33 6.64 3.66 8 4 C7.67 4.66 7.34 5.32 7 6 C3.63279613 4.60667426 2.0140476 3.0210714 0 0 Z " fill="#213DA3" transform="translate(855,810)"/>
<path d="M0 0 C0.91007813 0.00902344 1.82015625 0.01804687 2.7578125 0.02734375 C3.45648437 0.03894531 4.15515625 0.05054688 4.875 0.0625 C4.545 0.7225 4.215 1.3825 3.875 2.0625 C2.26625 2.000625 2.26625 2.000625 0.625 1.9375 C-2.78247485 2.0510825 -4.33239631 2.27523364 -7.125 4.0625 C-7.125 3.0725 -7.125 2.0825 -7.125 1.0625 C-4.60024538 -0.19987731 -2.81299534 -0.03606404 0 0 Z " fill="#31468A" transform="translate(901.125,767.9375)"/>
<path d="M0 0 C0.66 0 1.32 0 2 0 C1.67 2.64 1.34 5.28 1 8 C0.01 8 -0.98 8 -2 8 C-1.47731534 5.23723823 -0.89130413 2.6739124 0 0 Z " fill="#DCA77B" transform="translate(469,701)"/>
<path d="M0 0 C1.65 1.65 3.3 3.3 5 5 C4.34 5 3.68 5 3 5 C2.67 5.66 2.34 6.32 2 7 C0.4375 5.1875 0.4375 5.1875 -1 3 C-0.67 2.01 -0.34 1.02 0 0 Z " fill="#BA8159" transform="translate(355,569)"/>
<path d="M0 0 C4.75 0.75 4.75 0.75 7 3 C7 3.99 7 4.98 7 6 C4.525 5.01 4.525 5.01 2 4 C2.33 3.01 2.66 2.02 3 1 C2.01 0.67 1.02 0.34 0 0 Z " fill="#B77D59" transform="translate(352,555)"/>
<path d="M0 0 C2.31 0 4.62 0 7 0 C7 0.66 7 1.32 7 2 C2.545 2.495 2.545 2.495 -2 3 C-1.34 2.67 -0.68 2.34 0 2 C0 1.34 0 0.68 0 0 Z " fill="#213BA1" transform="translate(799,807)"/>
<path d="M0 0 C0.66 0.33 1.32 0.66 2 1 C1.02433888 2.16959987 0.044375 3.33561177 -0.9375 4.5 C-1.48277344 5.1496875 -2.02804687 5.799375 -2.58984375 6.46875 C-3.05519531 6.9740625 -3.52054687 7.479375 -4 8 C-4.33 8 -4.66 8 -5 8 C-5.3125 5.6875 -5.3125 5.6875 -5 3 C-2.625 1.125 -2.625 1.125 0 0 Z " fill="#D4DAF3" transform="translate(267,252)"/>
<path d="M0 0 C0.66 0.33 1.32 0.66 2 1 C-0.25 3.0625 -0.25 3.0625 -3 5 C-5.3125 4.75 -5.3125 4.75 -7 4 C-2.25 1.125 -2.25 1.125 0 0 Z " fill="#C0C5E7" transform="translate(445,818)"/>
<path d="M0 0 C0.33 0.99 0.66 1.98 1 3 C3.50447516 4.21869929 3.50447516 4.21869929 6 5 C2.25 7 2.25 7 0 7 C0 4.69 0 2.38 0 0 Z " fill="#CE9E82" transform="translate(542,787)"/>
<path d="M0 0 C1.65 0.33 3.3 0.66 5 1 C5 1.66 5 2.32 5 3 C5.66 3 6.32 3 7 3 C6.67 3.66 6.34 4.32 6 5 C3.69 4.01 1.38 3.02 -1 2 C-0.67 1.34 -0.34 0.68 0 0 Z " fill="#283155" transform="translate(424,748)"/>
<path d="M0 0 C0.33 0.66 0.66 1.32 1 2 C0.0625 4.625 0.0625 4.625 -1 7 C-1.66 7 -2.32 7 -3 7 C-3.66 5.35 -4.32 3.7 -5 2 C-3.68 2.33 -2.36 2.66 -1 3 C-0.67 2.01 -0.34 1.02 0 0 Z " fill="#352E2C" transform="translate(391,549)"/>
</svg>
